<?xml version="1.0" encoding="UTF-8"?>
<svg width="16px" height="16px" viewBox="0 0 16 16" version="1.1" xmlns="http://www.w3.org/2000/svg" xmlns:xlink="http://www.w3.org/1999/xlink">
    <!-- Generator: Sketch 54.1 (76490) - https://sketchapp.com -->
    <title>icon/16px/传感器/二氧化碳浓度选中</title>
    <desc>Created with Sketch.</desc>
    <g id="icon/16px/传感器/二氧化碳浓度选中" stroke="none" stroke-width="1" fill="none" fill-rule="evenodd">
        <g id="二氧化碳" fill-rule="nonzero">
            <g id="编组">
                <rect id="矩形" fill="#000000" opacity="0" x="0" y="0" width="16" height="16"></rect>
                <path d="M8.93333333,8.33333333 C8.53333333,8.33333333 8.2,8.66666666 8.2,9.06666667 L8.2,9.8 C8.2,10.2 8.53333333,10.5333333 8.93333333,10.5333333 C9.33333333,10.5333333 9.66666666,10.2 9.66666667,9.8 L9.66666667,9.06666667 C9.6,8.66666667 9.33333334,8.33333334 8.93333333,8.33333333 L8.93333333,8.33333333 Z M12.7333333,5.46666667 C12.1333333,3.4 10.2,2 8,2 C5.8,2 3.86666667,3.4 3.26666667,5.46666667 C1.33333333,5.93333333 0,7.66666667 0,9.66666667 C0,12.0666667 1.93333333,14 4.33333333,14 L11.6666667,14 C14.0666667,14 16,12.0666667 16,9.66666667 C16,7.66666667 14.6666667,5.93333334 12.7333333,5.46666667 Z M5.4,10.5333333 L6.33333333,10.5333333 C6.6,10.5333333 6.86666666,10.7333333 6.86666667,11.0666667 C6.86666669,11.4 6.66666667,11.6 6.33333333,11.6 L5.4,11.6 C4.26666667,11.6 3.33333333,10.6666667 3.33333333,9.53333333 C3.33333333,8.39999998 4.26666667,7.33333333 5.4,7.33333333 L6.33333333,7.33333333 C6.6,7.33333333 6.86666666,7.53333333 6.86666667,7.86666667 C6.86666669,8.20000002 6.66666667,8.4 6.33333333,8.4 L5.4,8.4 C4.8,8.4 4.33333333,8.86666667 4.33333333,9.46666667 C4.33333333,10.0666667 4.8,10.5333333 5.4,10.5333333 L5.4,10.5333333 Z M10.6,9.8 C10.6,10.7333333 9.8,11.5333333 8.86666667,11.5333333 C7.93333334,11.5333333 7.13333334,10.7333333 7.13333333,9.8 L7.13333333,9.06666667 C7.13333333,8.13333334 7.93333333,7.33333334 8.86666667,7.33333333 C9.80000002,7.33333331 10.6,8.13333333 10.6,9.06666667 L10.6,9.8 L10.6,9.8 Z M12.6,11.5333333 L11.2,11.5333333 C11.0666667,11.5333333 10.9333333,11.4666667 10.8666667,11.3333333 C10.8,11.2 10.8666667,11.0666667 11,10.9333333 L12,10.1333333 L12,10 C12,10 12,9.93333333 11.9333333,9.86666667 C11.8666667,9.80000002 11.8,9.8 11.7333333,9.86666667 L11.5333333,10.0666667 C11.4,10.2 11.2,10.1333333 11.0666667,10 C10.9333333,9.86666667 11,9.66666667 11.1333333,9.53333333 L11.3333333,9.33333333 C11.6666667,9.06666666 12.1333333,9.06666666 12.4666667,9.4 C12.6,9.53333333 12.7333333,9.8 12.7333333,10 C12.7333333,10.2 12.6,10.4666667 12.4,10.6 L12.1333333,10.8 L12.6,10.8 C12.8,10.8 12.9333333,10.9333333 12.9333333,11.1333333 C12.9333333,11.3333333 12.7333333,11.5333333 12.6,11.5333333 L12.6,11.5333333 Z" id="形状" fill="#FFFFFF"></path>
            </g>
        </g>
    </g>
</svg>