<?xml version="1.0" encoding="UTF-8"?>
<svg width="16px" height="16px" viewBox="0 0 16 16" version="1.1" xmlns="http://www.w3.org/2000/svg" xmlns:xlink="http://www.w3.org/1999/xlink">
    <!-- Generator: Sketch 54.1 (76490) - https://sketchapp.com -->
    <title>icon/16px/传感器/光照传感器</title>
    <desc>Created with Sketch.</desc>
    <g id="icon/16px/传感器/光照传感器" stroke="none" stroke-width="1" fill="none" fill-rule="evenodd">
        <g id="太阳" fill-rule="nonzero">
            <g id="编组">
                <rect id="矩形" fill="#000000" opacity="0" x="0" y="0" width="16" height="16"></rect>
                <path d="M8,0 C8.50494606,3.09190288e-17 8.91428572,0.409339659 8.91428572,0.914285719 L8.91428572,2.05714286 C8.91428572,2.56208892 8.50494606,2.97142858 8,2.97142858 C7.49505394,2.97142858 7.08571428,2.56208892 7.08571428,2.05714286 L7.08571428,0.914285719 C7.08571428,0.409339659 7.49505394,-3.09190288e-17 8,0 L8,0 Z M8,13.0285714 C8.50494606,13.0285714 8.91428572,13.4379111 8.91428572,13.9428571 L8.91428572,15.0857143 C8.91428572,15.5906603 8.50494606,16 8,16 C7.49505394,16 7.08571428,15.5906603 7.08571428,15.0857143 L7.08571428,13.9428571 C7.08571428,13.4379111 7.49505394,13.0285714 8,13.0285714 L8,13.0285714 Z M16,8 C16,8.50494606 15.5906603,8.91428572 15.0857143,8.91428572 L13.9428571,8.91428572 C13.4379111,8.91428572 13.0285714,8.50494606 13.0285714,8 C13.0285714,7.49505394 13.4379111,7.08571428 13.9428571,7.08571428 L15.0857143,7.08571428 C15.5906603,7.08571428 16,7.49505394 16,8 L16,8 Z M2.97142858,8 C2.97142858,8.50494606 2.56208892,8.91428572 2.05714286,8.91428572 L0.914285719,8.91428572 C0.409339659,8.91428572 -6.4345527e-15,8.50494606 -6.49639076e-15,8 C-6.55822882e-15,7.49505394 0.409339659,7.08571428 0.914285719,7.08571428 L2.05714286,7.08571428 C2.56208892,7.08571428 2.97142858,7.49505394 2.97142858,8 L2.97142858,8 Z M13.6569143,2.34308572 C13.8283863,2.5145489 13.924719,2.74710819 13.924719,2.9896 C13.924719,3.23209181 13.8283863,3.4646511 13.6569143,3.63611428 L12.8486857,4.44434286 C12.6177084,4.67532018 12.2810516,4.76552709 11.9655308,4.68098353 C11.6500099,4.59643997 11.40356,4.34999011 11.3190165,4.03446923 C11.2344729,3.71894835 11.3246798,3.38229159 11.5556571,3.15131428 L12.3638857,2.34308572 C12.5353489,2.1716137 12.7679082,2.07528098 13.0104,2.07528098 C13.2528918,2.07528098 13.4854511,2.1716137 13.6569143,2.34308572 L13.6569143,2.34308572 Z M4.44434286,11.5556571 C4.61581488,11.7271203 4.7121476,11.9596796 4.7121476,12.2021714 C4.7121476,12.4446632 4.61581488,12.6772225 4.44434286,12.8486857 L3.63611428,13.6569143 C3.2790543,14.0139743 2.7001457,14.0139743 2.34308572,13.6569143 C1.98602574,13.2998543 1.98602574,12.7209457 2.34308572,12.3638857 L3.15131428,11.5556571 C3.32277747,11.3841851 3.55533676,11.2878524 3.79782857,11.2878524 C4.04032038,11.2878524 4.27287967,11.3841851 4.44434286,11.5556571 L4.44434286,11.5556571 Z M13.6569143,13.6569143 C13.4854511,13.8283863 13.2528918,13.924719 13.0104,13.924719 C12.7679082,13.924719 12.5353489,13.8283863 12.3638857,13.6569143 L11.5556571,12.8486857 C11.1985972,12.4916257 11.1985972,11.9127171 11.5556572,11.5556572 C11.9127171,11.1985972 12.4916257,11.1985972 12.8486857,11.5556571 L13.6569143,12.3638857 C13.8283863,12.5353489 13.924719,12.7679082 13.924719,13.0104 C13.924719,13.2528918 13.8283863,13.4854511 13.6569143,13.6569143 L13.6569143,13.6569143 Z M4.44434286,4.44434286 C4.27287967,4.61581488 4.04032038,4.7121476 3.79782857,4.7121476 C3.55533676,4.7121476 3.32277747,4.61581488 3.15131428,4.44434286 L2.34308572,3.63611428 C2.11210841,3.40513698 2.0219015,3.06848022 2.10644506,2.75295934 C2.19098862,2.43743847 2.43743847,2.19098862 2.75295934,2.10644506 C3.06848022,2.0219015 3.40513698,2.11210841 3.63611428,2.34308572 L4.44434286,3.15131428 C4.61581488,3.32277747 4.7121476,3.55533676 4.7121476,3.79782857 C4.7121476,4.04032038 4.61581488,4.27287967 4.44434286,4.44434286 L4.44434286,4.44434286 Z M8,11.4285714 C6.10651428,11.4285714 4.57142858,9.8934857 4.57142858,8 C4.57142858,6.10651428 6.1065143,4.57142858 8,4.57142858 C9.89348572,4.57142858 11.4285714,6.1065143 11.4285714,8 C11.4285714,9.89348572 9.8934857,11.4285714 8,11.4285714 Z" id="形状" fill="#F5AA6C"></path>
            </g>
        </g>
    </g>
</svg>