<?xml version="1.0" encoding="UTF-8"?>
<svg width="16px" height="16px" viewBox="0 0 16 16" version="1.1" xmlns="http://www.w3.org/2000/svg" xmlns:xlink="http://www.w3.org/1999/xlink">
    <!-- Generator: Sketch 54.1 (76490) - https://sketchapp.com -->
    <title>icon/16px/传感器/土壤温度</title>
    <desc>Created with Sketch.</desc>
    <g id="icon/16px/传感器/土壤温度" stroke="none" stroke-width="1" fill="none" fill-rule="evenodd">
        <g id="温度_fill" fill-rule="nonzero">
            <g id="编组">
                <rect id="矩形" fill="#000000" opacity="0" x="0" y="0" width="16" height="16"></rect>
                <path d="M8,1.99998437 C8.397875,1.99998437 8.77376562,2.15678125 9.05848437,2.4415 C9.34320312,2.72614062 9.5,3.102125 9.5,3.5 L9.5,8.357625 L9.8744375,8.65792187 C10.5897031,9.23134375 10.9999219,10.0849844 10.9999219,10.9999844 C10.9999219,11.8012969 10.6878906,12.5547031 10.12125,13.12125 C9.5546875,13.6878906 8.80129687,14.0000156 7.99998437,14.0000156 C7.19865625,14.0000156 6.44526562,13.6878906 5.87864062,13.12125 C5.312,12.5547031 4.99995312,11.8012969 4.99995312,10.9999844 C4.99995312,10.0849844 5.4101875,9.23132812 6.12551562,8.65784375 L6.49996875,8.357625 L6.49996875,3.5 C6.49996875,3.102125 6.65675,2.72615625 6.94146875,2.4415 C7.22615625,2.15678125 7.60204687,1.99998437 8,1.99998437 L8,1.99998437 Z M8,1 C6.62495313,1 5.50001562,2.12503125 5.50001562,3.5 L5.50001562,7.87767187 C4.585625,8.6106875 4,9.73685937 4,10.9999844 C4,13.2091406 5.79082812,15 8,15 C10.2090781,15 12,13.2091406 12,10.9999844 C12,9.73685937 11.4142813,8.6106875 10.4999844,7.87767188 L10.4999844,3.5 C10.4999844,2.12503125 9.37495313,1 8,1 Z M8.4999375,9.06303125 L8.4999375,5.00001562 C8.4999375,4.72496875 8.27495313,4.49998437 8,4.49998437 C7.72496875,4.49998437 7.49996875,4.72498437 7.49996875,5.00001562 L7.49996875,9.06303125 C6.63739063,9.28504687 5.99995313,10.0680469 5.99995313,10.9999844 C5.99995313,12.1045781 6.89542188,12.9999375 8,12.9999375 C9.1045625,12.9999375 9.99995313,12.1045625 9.99995313,10.9999844 C9.99995313,10.0680469 9.36259375,9.28504687 8.4999375,9.06303125 Z" id="形状" fill="#009688"></path>
            </g>
        </g>
        <rect id="矩形" fill="#009688" x="1" y="7.5" width="2.5" height="1" rx="0.5"></rect>
        <rect id="矩形复制-3" fill="#009688" x="12.5" y="7.5" width="2.5" height="1" rx="0.5"></rect>
        <rect id="矩形复制" fill="#009688" x="1" y="10" width="2" height="1" rx="0.5"></rect>
        <rect id="矩形复制-4" fill="#009688" x="13" y="10" width="2" height="1" rx="0.5"></rect>
        <rect id="矩形复制-2" fill="#009688" x="1" y="12.5" width="3" height="1" rx="0.5"></rect>
        <rect id="矩形复制-5" fill="#009688" x="12" y="12.5" width="3" height="1" rx="0.5"></rect>
    </g>
</svg>