<?xml version="1.0" encoding="UTF-8"?>
<svg width="16px" height="16px" viewBox="0 0 16 16" version="1.1" xmlns="http://www.w3.org/2000/svg" xmlns:xlink="http://www.w3.org/1999/xlink">
    <!-- Generator: Sketch 54.1 (76490) - https://sketchapp.com -->
    <title>气压/绿</title>
    <desc>Created with Sketch.</desc>
    <g id="气压/绿" stroke="none" stroke-width="1" fill="none" fill-rule="evenodd">
        <path d="M7.5997299,11.269881 L7.5997299,5.5110811 C7.5997299,5.22871654 7.82857033,5 8.110811,5 C8.39305167,5 8.6218921,5.22871654 8.6218921,5.5110811 L8.6218921,11.269881 C9.11104317,11.5511305 9.27954506,12.1756406 8.99835754,12.6648536 C8.81578582,12.9824376 8.47713256,13.1779426 8.110811,13.1772357 C7.54632967,13.1771737 7.0886488,12.7195548 7.0886488,12.1550115 C7.08871852,11.7898698 7.28352707,11.452485 7.5997299,11.269881 L7.5997299,11.269881 Z M10.1551354,10.1562571 C9.8728731,10.1562571 9.6440543,9.9274383 9.6440543,9.645176 C9.6440543,9.3629137 9.8728731,9.1340949 10.1551354,9.1340949 L10.1551354,8.6230138 C9.97121401,8.6250388 9.80039046,8.5280785 9.70784024,8.36912683 C9.61529001,8.21017516 9.61529001,8.01375219 9.70784024,7.85480052 C9.80039046,7.69584885 9.97121401,7.59888855 10.1551354,7.60091355 L10.1551354,7.08983245 C9.8728731,7.08983245 9.6440543,6.86101365 9.6440543,6.57875135 C9.6440543,6.29648905 9.8728731,6.06767025 10.1551354,6.06767025 L10.1551354,3.92450559 C10.1108417,2.829615 9.18742657,1.97799902 8.09259793,2.02216882 L8.06998646,2.02334585 C7.01257515,1.97527325 6.11647962,2.7936225 6.06840703,3.85090991 C6.06722999,3.87544181 6.0666105,3.8999737 6.0664866,3.92450559 L6.0664866,6.06767025 C6.3487489,6.06767025 6.5775677,6.29648905 6.5775677,6.57875135 C6.5775677,6.86101365 6.3487489,7.08983245 6.0664866,7.08983245 L6.0664866,7.60091355 C6.346537,7.60399694 6.57194097,7.8318963 6.57194097,8.11196368 C6.57194097,8.39203105 6.346537,8.61993041 6.0664866,8.6230138 L6.0664866,9.1340949 C6.3487489,9.1340949 6.5775677,9.3629137 6.5775677,9.645176 C6.5775677,9.9274383 6.3487489,10.1562571 6.0664866,10.1562571 L6.0664866,13.6895004 C6.0664866,14.5362224 5.38002725,15.2227437 4.5332433,15.2227437 C3.6863974,15.2227437 3,14.5362224 3,13.6895004 L3,13.1784193 C3,12.896157 3.2288188,12.6673382 3.5110811,12.6673382 C3.7933434,12.6673382 4.0221622,12.896157 4.0221622,13.1784193 L4.0221622,13.6895004 C4.0221622,13.9717627 4.250981,14.2005815 4.5332433,14.2005815 C4.8155056,14.2005815 5.0443244,13.9717627 5.0443244,13.6895004 L5.0443244,3.92450559 C5.04178448,2.31196729 6.34686879,1.00260848 7.9594071,1.00000662 C7.98777984,0.999944666 8.01615259,1.00031636 8.04440143,1.00118365 L8.110811,1.00118365 C9.76120028,0.958128939 11.134057,2.26116892 11.1769259,3.91155821 C11.1771737,3.9158327 11.1772357,3.92016915 11.1772976,3.92450559 L11.1772976,13.6895004 C11.1772976,13.9717627 11.4061164,14.2005815 11.6883787,14.2005815 C11.970641,14.2005815 12.1994598,13.9717627 12.1994598,13.6895004 L12.1994598,13.1784193 C12.1994598,12.896157 12.4282786,12.6673382 12.7105409,12.6673382 C12.9928032,12.6673382 13.221622,12.896157 13.221622,13.1784193 L13.221622,13.6895004 C13.221622,14.5362224 12.5351626,15.2227437 11.6883787,15.2227437 C10.8415328,15.2227437 10.1551354,14.5362224 10.1551354,13.6895004 L10.1551354,10.1562571 Z M13.1994598,9.1340949 L13.1994598,6.06767025 C13.1994598,5.78530569 13.4283002,5.55658915 13.7105409,5.55658915 C13.9927816,5.55658915 14.221622,5.78530569 14.221622,6.06767025 L14.221622,9.1340949 C14.221622,9.4163572 13.9928032,9.645176 13.7105409,9.645176 C13.4282786,9.645176 13.1994598,9.4163572 13.1994598,9.1340949 Z M2.5110811,9.645176 C2.2288188,9.645176 2,9.4163572 2,9.1340949 L2,6.06767025 C2,5.78530569 2.22884043,5.55658915 2.5110811,5.55658915 C2.79332177,5.55658915 3.0221622,5.78530569 3.0221622,6.06767025 L3.0221622,9.1340949 C3.0221622,9.4163572 2.7933434,9.645176 2.5110811,9.645176 L2.5110811,9.645176 Z" id="形状" fill="#009688" fill-rule="nonzero"></path>
    </g>
</svg>