<?xml version="1.0" encoding="UTF-8"?>
<svg width="16px" height="16px" viewBox="0 0 16 16" version="1.1" xmlns="http://www.w3.org/2000/svg" xmlns:xlink="http://www.w3.org/1999/xlink">
    <!-- Generator: Sketch 54.1 (76490) - https://sketchapp.com -->
    <title>icon/16px/传感器/空气温度选中</title>
    <desc>Created with Sketch.</desc>
    <g id="icon/16px/传感器/空气温度选中" stroke="none" stroke-width="1" fill="none" fill-rule="evenodd">
        <g id="温度_fill" fill-rule="nonzero">
            <g id="编组">
                <rect id="矩形" fill="#000000" opacity="0" x="0" y="0" width="16" height="16"></rect>
                <path d="M6.5,1.99998438 C6.897875,1.99998438 7.27376563,2.15678125 7.55848437,2.4415 C7.84320312,2.72614063 8,3.102125 8,3.5 L8,8.357625 L8.3744375,8.65792187 C9.08970312,9.23134375 9.49992187,10.0849844 9.49992187,10.9999844 C9.49992187,11.8012969 9.18789062,12.5547031 8.62125,13.12125 C8.0546875,13.6878906 7.30129687,14.0000156 6.49998437,14.0000156 C5.69865625,14.0000156 4.94526562,13.6878906 4.37864062,13.12125 C3.812,12.5547031 3.49995312,11.8012969 3.49995312,10.9999844 C3.49995312,10.0849844 3.9101875,9.23132813 4.62551562,8.65784375 L4.99996875,8.357625 L4.99996875,3.5 C4.99996875,3.102125 5.15675,2.72615625 5.44146875,2.4415 C5.72615625,2.15678125 6.10204687,1.99998438 6.5,1.99998438 L6.5,1.99998438 Z M6.5,1 C5.12495313,1 4.00001562,2.12503125 4.00001562,3.5 L4.00001562,7.87767187 C3.085625,8.6106875 2.5,9.73685937 2.5,10.9999844 C2.5,13.2091406 4.29082812,15 6.5,15 C8.70907812,15 10.5,13.2091406 10.5,10.9999844 C10.5,9.73685937 9.91428125,8.6106875 8.99998438,7.87767188 L8.99998438,3.5 C8.99998438,2.12503125 7.87495313,1 6.5,1 Z M6.9999375,9.06303125 L6.9999375,5.00001562 C6.9999375,4.72496875 6.77495312,4.49998437 6.5,4.49998437 C6.22496875,4.49998437 5.99996875,4.72498437 5.99996875,5.00001562 L5.99996875,9.06303125 C5.13739063,9.28504687 4.49995312,10.0680469 4.49995312,10.9999844 C4.49995312,12.1045781 5.39542187,12.9999375 6.5,12.9999375 C7.6045625,12.9999375 8.49995312,12.1045625 8.49995312,10.9999844 C8.49995312,10.0680469 7.86259375,9.28504688 6.9999375,9.06303125 Z M13,2.5 L10.5,2.5 C10.225,2.5 10,2.275 10,2 C10,1.725 10.225,1.5 10.5,1.5 L13,1.5 C13.275,1.5 13.5,1.725 13.5,2 C13.5,2.275 13.275,2.5 13,2.5 Z M13,5 L10.5,5 C10.225,5 10,4.775 10,4.5 C10,4.225 10.225,4 10.5,4 L13,4 C13.275,4 13.5,4.225 13.5,4.5 C13.5,4.775 13.275,5 13,5 Z M13,7.5 L10.5,7.5 C10.225,7.5 10,7.275 10,7 C10,6.725 10.225,6.5 10.5,6.5 L13,6.5 C13.275,6.5 13.5,6.725 13.5,7 C13.5,7.275 13.275,7.5 13,7.5 Z" id="形状" fill="#FFFFFF"></path>
            </g>
        </g>
    </g>
</svg>