<?xml version="1.0" encoding="UTF-8"?>
<svg width="16px" height="16px" viewBox="0 0 16 16" version="1.1" xmlns="http://www.w3.org/2000/svg" xmlns:xlink="http://www.w3.org/1999/xlink">
    <!-- Generator: Sketch 54.1 (76490) - https://sketchapp.com -->
    <title>icon/16px/传感器/空气湿度</title>
    <desc>Created with Sketch.</desc>
    <g id="icon/16px/传感器/空气湿度" stroke="none" stroke-width="1" fill="none" fill-rule="evenodd">
        <path d="M7,14 C9.48528137,14 11.5,11.9852814 11.5,9.5 C11.5,7.87921865 10.1309739,5.31229468 7.39884443,1.69846539 L7,1.17090778 L6.60115557,1.69846539 C3.86902612,5.31229468 2.5,7.87921865 2.5,9.5 C2.5,11.9852814 4.51471863,14 7,14 Z M10.5,9.5 C10.5,11.4329966 8.93299662,13 7,13 C5.06700338,13 3.5,11.4329966 3.5,9.5 C3.5,8.24479935 4.66498727,5.9945616 7,2.8350004 C9.33501273,5.9945616 10.5,8.24479935 10.5,9.5 Z" id="椭圆形" fill="#2196F3" fill-rule="nonzero"></path>
        <circle id="椭圆形" fill="#2196F3" cx="7" cy="9.5" r="2"></circle>
        <path d="M14,2.5 L11.5,2.5 C11.225,2.5 11,2.275 11,2 C11,1.725 11.225,1.5 11.5,1.5 L14,1.5 C14.275,1.5 14.5,1.725 14.5,2 C14.5,2.275 14.275,2.5 14,2.5 Z" id="路径" fill="#2196F3"></path>
        <path d="M14,5 L11.5,5 C11.225,5 11,4.775 11,4.5 C11,4.225 11.225,4 11.5,4 L14,4 C14.275,4 14.5,4.225 14.5,4.5 C14.5,4.775 14.275,5 14,5 Z" id="路径" fill="#2196F3"></path>
        <path d="M14,7.5 L11.5,7.5 C11.225,7.5 11,7.275 11,7 C11,6.725 11.225,6.5 11.5,6.5 L14,6.5 C14.275,6.5 14.5,6.725 14.5,7 C14.5,7.275 14.275,7.5 14,7.5 Z" id="路径" fill="#2196F3"></path>
    </g>
</svg>