<?xml version="1.0" encoding="UTF-8"?>
<svg width="16px" height="16px" viewBox="0 0 16 16" version="1.1" xmlns="http://www.w3.org/2000/svg" xmlns:xlink="http://www.w3.org/1999/xlink">
    <!-- Generator: Sketch 54.1 (76490) - https://sketchapp.com -->
    <title>icon/16px/传感器/风力</title>
    <desc>Created with Sketch.</desc>
    <g id="icon/16px/传感器/风力" stroke="none" stroke-width="1" fill="none" fill-rule="evenodd">
        <g id="风力" transform="translate(0.000000, 0.000000)" fill-rule="nonzero">
            <g id="编组">
                <rect id="矩形" fill="#000000" opacity="0" x="0" y="0" width="15.9843902" height="15.9843902"></rect>
                <path d="M0.622423274,7.9833149 L8.01076366,7.9833149 L8.18836798,7.97443468 C9.92889047,7.88563252 11.2698032,6.44703739 11.2076417,4.7597962 C11.1454802,3.06367479 9.69800485,1.74052249 7.94860213,1.76716315 C6.20807964,1.80268402 4.8138856,3.18799783 4.81388561,4.88411924 C4.81388561,5.08836422 4.92932844,5.283729 5.11581298,5.39029161 C5.30229754,5.49685421 5.53318317,5.49685421 5.71966772,5.39029161 C5.89727205,5.283729 6.01271486,5.08836424 6.01271488,4.88411924 C6.01271488,3.809613 6.90961678,2.93935176 8.01076366,2.93935176 C9.11191054,2.93935176 10.0088124,3.809613 10.0088124,4.88411924 C10.0088124,5.95862548 9.11191054,6.82888673 8.01076366,6.82888673 L0.542501323,6.82888673 C0.222813518,6.8732878 0.000808101463,7.13969431 0.0185685385,7.44162168 C0.0452091941,7.75242927 0.302735469,7.9833149 0.622423274,7.9833149 Z" id="路径" fill="#009688"></path>
                <path d="M13.6053002,6.43815717 C12.3354292,6.43815717 11.2875637,7.39722059 11.2076417,8.62269051 C11.1898813,8.92461788 11.4207669,9.19990461 11.7315745,9.23542547 C12.0423821,9.27094634 12.3354292,9.07558156 12.3975908,8.7736542 L12.4153512,8.58716965 C12.5130336,7.99219512 13.063607,7.55706451 13.6852222,7.60146558 C14.3068374,7.64586666 14.7952493,8.14315881 14.8041295,8.74701356 C14.8130097,9.35086829 14.3423582,9.86592087 13.7207431,9.92808239 L13.5608992,9.93696261 L13.5164981,9.94584283 L10.7369902,9.94584283 C10.6837089,9.94584283 10.6393078,9.93696261 10.5860265,9.93696261 L10.5061046,9.94584283 L0.604662837,9.94584283 L0.524740886,9.95472303 C0.213693694,9.99170454 -0.0154081961,10.2635203 0.000808101463,10.5763382 C0.0185685385,10.8871458 0.284975032,11.1180314 0.604662837,11.1180314 L10.5860265,11.1091512 C11.1454802,11.1091512 11.6072514,11.5442818 11.6072515,12.0770949 C11.6072515,12.6365485 11.2076417,13.0539187 10.6659485,13.0539187 C10.0798542,13.0539187 9.80456745,12.7963924 9.71576528,12.3523816 C9.67906869,12.1408846 9.52886978,11.9667904 9.32503574,11.8994905 C9.12079076,11.8284488 8.88990511,11.8728499 8.73006122,12.0149333 C8.57021733,12.1570168 8.49917559,12.370142 8.54357666,12.5832672 C8.73894144,13.5334504 9.4671192,14.2172271 10.6748287,14.2172271 C11.2446123,14.2244557 11.7931734,14.0013001 12.1961036,13.5983698 C12.5990339,13.1954395 12.8221895,12.6468785 12.814961,12.0770949 C12.814961,11.7307664 12.7261588,11.4021984 12.5751951,11.1091512 L13.5076179,11.1091512 L13.5875398,11.100271 L13.7562639,11.100271 C15.0438954,11.0114688 16.0295994,9.95472303 15.9940786,8.70261246 C15.9585577,7.4505019 14.8929317,6.44703739 13.6053002,6.43815717 L13.6053002,6.43815717 Z" id="路径" fill="#009688"></path>
            </g>
        </g>
    </g>
</svg>