<?xml version="1.0" encoding="UTF-8"?>
<svg width="16px" height="16px" viewBox="0 0 16 16" version="1.1" xmlns="http://www.w3.org/2000/svg" xmlns:xlink="http://www.w3.org/1999/xlink">
    <!-- Generator: Sketch 54.1 (76490) - https://sketchapp.com -->
    <title>icon/16px/传感器/风速</title>
    <desc>Created with Sketch.</desc>
    <g id="icon/16px/传感器/风速" stroke="none" stroke-width="1" fill="none" fill-rule="evenodd">
        <g id="风速" fill-rule="nonzero">
            <g id="编组">
                <rect id="矩形" fill="#000000" opacity="0" x="0" y="0" width="16" height="16"></rect>
                <path d="M13.0513125,7.980375 C14.4412656,7.19254688 14.9127344,5.43939063 14.1042812,4.064625 C13.2958281,2.68982813 11.5136875,2.21396875 10.1236875,3.00179688 C8.983625,3.648 9.33954688,5.31128125 8.64679687,6.87904688 C8.94329687,5.677125 8.534625,3.96703125 7.97689062,2.983 C7.18903125,1.59304688 5.43590625,1.12157813 4.0610625,1.93 C2.68629687,2.73845313 2.21045312,4.520625 2.9983125,5.910625 C3.64445312,7.05064062 5.307625,6.69479687 6.87529687,7.3874375 C5.67340625,7.0910625 3.96346875,7.49973438 2.97951562,8.05742187 C1.58951562,8.84525 1.11809375,10.5984375 1.92651562,11.9732187 C2.7349375,13.3480156 4.51714062,13.823875 5.90710937,13.0360156 C7.04667187,12.390125 6.69159375,10.7279844 7.38310937,9.16084375 C7.08784375,10.36275 7.4965625,12.0714531 8.05389062,13.0548125 C8.84175,14.4448125 10.5949219,14.9162656 11.9696875,14.1078438 C13.3445312,13.2993906 13.8203437,11.5172188 13.0324844,10.1272188 C12.3865781,8.98760938 10.7243281,9.34279688 9.157125,8.65114063 C10.3590312,8.9465 12.0678906,8.53779687 13.0513125,7.980375 L13.0513125,7.980375 Z M8.01545313,9.09892188 C7.41896875,9.09892188 6.93542187,8.61540625 6.93542187,8.01892188 C6.93542187,7.4224375 7.41896875,6.93892188 8.01545313,6.93892188 C8.61190625,6.93892188 9.09545313,7.4224375 9.09545313,8.01892188 C9.09545313,8.61540625 8.61189063,9.09892188 8.01545313,9.09892188 Z" id="形状" fill="#009688"></path>
            </g>
        </g>
    </g>
</svg>