<?xml version="1.0" encoding="UTF-8"?>
<svg width="48px" height="48px" viewBox="0 0 48 48" version="1.1" xmlns="http://www.w3.org/2000/svg" xmlns:xlink="http://www.w3.org/1999/xlink">
    <!-- Generator: Sketch 54.1 (76490) - https://sketchapp.com -->
    <title>icon/48/内遮阳</title>
    <desc>Created with Sketch.</desc>
    <defs>
        <linearGradient x1="50%" y1="102.333399%" x2="50%" y2="2.88301109%" id="linearGradient-1">
            <stop stop-color="#01BF6C" offset="0%"></stop>
            <stop stop-color="#01BF6C" stop-opacity="0.92" offset="6%"></stop>
            <stop stop-color="#01BF6C" stop-opacity="0.5" offset="37%"></stop>
            <stop stop-color="#01BF6C" stop-opacity="0.23" offset="70%"></stop>
            <stop stop-color="#01BF6C" stop-opacity="0" offset="100%"></stop>
        </linearGradient>
        <linearGradient x1="49.9979579%" y1="102.333315%" x2="49.9979579%" y2="2.88120809%" id="linearGradient-2">
            <stop stop-color="#01BF6C" offset="0%"></stop>
            <stop stop-color="#01BF6C" stop-opacity="0.92" offset="6%"></stop>
            <stop stop-color="#01BF6C" stop-opacity="0.5" offset="37%"></stop>
            <stop stop-color="#01BF6C" stop-opacity="0.23" offset="70%"></stop>
            <stop stop-color="#01BF6C" stop-opacity="0" offset="100%"></stop>
        </linearGradient>
        <linearGradient x1="82.9721102%" y1="50%" x2="7.90910618%" y2="50%" id="linearGradient-3">
            <stop stop-color="#07A053" offset="1%"></stop>
            <stop stop-color="#12B262" offset="99%"></stop>
        </linearGradient>
        <linearGradient x1="24.2031197%" y1="67.0741972%" x2="100.43235%" y2="33.791009%" id="linearGradient-4">
            <stop stop-color="#0C9651" offset="0%"></stop>
            <stop stop-color="#13773B" offset="100%"></stop>
        </linearGradient>
        <linearGradient x1="100%" y1="50%" x2="0%" y2="50%" id="linearGradient-5">
            <stop stop-color="#08355E" offset="2%"></stop>
            <stop stop-color="#045646" offset="100%"></stop>
        </linearGradient>
        <linearGradient x1="100%" y1="50.0023777%" x2="0%" y2="50.0023777%" id="linearGradient-6">
            <stop stop-color="#08355E" offset="2%"></stop>
            <stop stop-color="#045646" offset="100%"></stop>
        </linearGradient>
        <linearGradient x1="12.3500561%" y1="64.2958662%" x2="99.4947704%" y2="32.0633488%" id="linearGradient-7">
            <stop stop-color="#047C43" offset="0%"></stop>
            <stop stop-color="#13773B" offset="100%"></stop>
        </linearGradient>
        <linearGradient x1="82.9730417%" y1="50%" x2="7.90946083%" y2="50%" id="linearGradient-8">
            <stop stop-color="#08355E" offset="2%"></stop>
            <stop stop-color="#045646" offset="100%"></stop>
        </linearGradient>
        <linearGradient x1="100.777815%" y1="68.2277304%" x2="-3.20426108%" y2="31.0176935%" id="linearGradient-9">
            <stop stop-color="#08355E" offset="2%"></stop>
            <stop stop-color="#045646" offset="100%"></stop>
        </linearGradient>
        <linearGradient x1="0%" y1="49.9967305%" x2="100%" y2="49.9967305%" id="linearGradient-10">
            <stop stop-color="#5AE595" offset="0%"></stop>
            <stop stop-color="#2DC977" offset="81%"></stop>
        </linearGradient>
        <linearGradient x1="-0.0340483487%" y1="50%" x2="99.9659517%" y2="50%" id="linearGradient-11">
            <stop stop-color="#08355E" offset="2%"></stop>
            <stop stop-color="#045646" offset="100%"></stop>
        </linearGradient>
        <linearGradient x1="100.0499%" y1="50%" x2="1.41824897e-13%" y2="50%" id="linearGradient-12">
            <stop stop-color="#23E8A1" offset="1%"></stop>
            <stop stop-color="#C2F9F5" offset="100%"></stop>
        </linearGradient>
        <linearGradient x1="23.2375979%" y1="-1.17493473%" x2="71.54047%" y2="91.2532637%" id="linearGradient-13">
            <stop stop-color="#4FF7B7" offset="1%"></stop>
            <stop stop-color="#DCFFF8" offset="100%"></stop>
        </linearGradient>
        <linearGradient x1="23.415493%" y1="-1.05633803%" x2="71.6549296%" y2="91.3732394%" id="linearGradient-14">
            <stop stop-color="#4FF7B7" offset="1%"></stop>
            <stop stop-color="#DCFFF8" offset="100%"></stop>
        </linearGradient>
        <linearGradient x1="23.3681462%" y1="-1.04438642%" x2="71.54047%" y2="91.2532637%" id="linearGradient-15">
            <stop stop-color="#4FF7B7" offset="1%"></stop>
            <stop stop-color="#DCFFF8" offset="100%"></stop>
        </linearGradient>
        <linearGradient x1="23.2472325%" y1="-0.922509225%" x2="71.5867159%" y2="91.3284133%" id="linearGradient-16">
            <stop stop-color="#4FF7B7" offset="1%"></stop>
            <stop stop-color="#DCFFF8" offset="100%"></stop>
        </linearGradient>
        <linearGradient x1="23.2375979%" y1="-1.04438642%" x2="71.54047%" y2="91.2532637%" id="linearGradient-17">
            <stop stop-color="#4FF7B7" offset="1%"></stop>
            <stop stop-color="#DCFFF8" offset="100%"></stop>
        </linearGradient>
        <linearGradient x1="23.2679739%" y1="-1.11111111%" x2="71.6339869%" y2="91.3071895%" id="linearGradient-18">
            <stop stop-color="#4FF7B7" offset="1%"></stop>
            <stop stop-color="#DCFFF8" offset="100%"></stop>
        </linearGradient>
        <linearGradient x1="23.2902033%" y1="-1.1090573%" x2="71.6266174%" y2="91.3123845%" id="linearGradient-19">
            <stop stop-color="#4FF7B7" offset="1%"></stop>
            <stop stop-color="#DCFFF8" offset="100%"></stop>
        </linearGradient>
        <linearGradient x1="23.2824427%" y1="-1.14503817%" x2="71.6284987%" y2="91.3486005%" id="linearGradient-20">
            <stop stop-color="#4FF7B7" offset="1%"></stop>
            <stop stop-color="#DCFFF8" offset="100%"></stop>
        </linearGradient>
        <linearGradient x1="23.1977819%" y1="-1.1090573%" x2="71.5341959%" y2="91.3123845%" id="linearGradient-21">
            <stop stop-color="#4FF7B7" offset="1%"></stop>
            <stop stop-color="#DCFFF8" offset="100%"></stop>
        </linearGradient>
    </defs>
    <g id="组件" stroke="none" stroke-width="1" fill="none" fill-rule="evenodd">
        <g id="icon/48/内遮阳" fill-rule="nonzero">
            <g id="资源-175" transform="translate(2.000000, 0.000000)">
                <polyline id="路径" fill="url(#linearGradient-1)" opacity="0.4" points="0 38.9094118 15.5294118 47.9482353 44.8447059 31.2847059 44.8447059 0 0 0"></polyline>
                <polyline id="路径" fill="url(#linearGradient-2)" opacity="0.5" points="6.36941176 38.3329412 16.9635294 44.8094118 35.1752941 33.9023529 35.1752941 1.64941176 6.36941176 1.64941176"></polyline>
                <polygon id="路径" fill="url(#linearGradient-3)" points="43.9976471 30.0988235 15.9882353 45.9905882 16.2482353 35.4058824 34.7058824 24.7352941 43.9917647 19.3670588 43.9917647 19.3729412"></polygon>
                <polyline id="路径" fill="url(#linearGradient-4)" points="43.9941176 19.3411765 44.0035294 19.9976471 43.9976471 30.0988235 23.6458824 41.6458824 16.2482353 35.4705882"></polyline>
                <polygon id="路径" fill="url(#linearGradient-5)" points="2.33294118 27.4023529 3.76 26.1823529 30.4823529 10.6764706 44.0035294 19.3352941 16.2505882 35.4176471"></polygon>
                <polygon id="路径" fill="url(#linearGradient-6)" points="2.33294118 28.0647059 3.76 26.8435294 30.4823529 11.3388235 44.0035294 19.9976471 16.2505882 36.0788235"></polygon>
                <path d="M43.9941176,19.3376471 L43.9941176,19.3376471 L34.6435294,24.8235294 L16.1870588,35.4952941 C16.16,35.3988235 16.1329412,35.3023529 16.1047059,35.2094118 C15.68893,33.8190894 15.0878436,32.4910802 14.3176471,31.2611765 C12.5682353,28.4588235 10.3341176,26.7270588 9.22470588,26.1905882 C7.81294118,25.5070588 6.60588235,25.3788235 5.61058824,25.5235294 C5.11488361,25.6084969 4.6346715,25.7671136 4.18588235,25.9941176 L31.1364706,10.3788235 L31.9705882,9.89764706 C33.1470588,9.35529412 34.8258824,9.10588235 36.9776471,10.1482353 C38.5670588,10.92 42.5305882,14.0211765 44.0047059,19.3352941 L43.9941176,19.3376471 Z" id="路径" fill="url(#linearGradient-7)" opacity="0.59"></path>
                <polygon id="路径" fill="url(#linearGradient-8)" points="16.2482353 35.4705882 16.2505882 36.0788235 44.0035294 19.9976471 44.0035294 19.3352941"></polygon>
                <polygon id="路径" fill="url(#linearGradient-9)" points="16.2529412 35.4717647 16.2388235 36.0694118 2.33764706 28.0694118 2.33764706 27.4447059 2.35882353 27.4564706 2.35882353 27.4564706 2.42352941 27.4941176"></polygon>
                <polygon id="路径" fill="url(#linearGradient-10)" points="2.33294118 28.0647059 16.2341176 36.0694118 15.9882353 46.0564706 2.33882353 38.1894118"></polygon>
                <path d="M16.2529412,35.4717647 L2.43176471,27.4905882 C3.60941176,28.1670588 16.2235294,35.38 16.2529412,35.4717647 Z" id="路径" fill="url(#linearGradient-11)"></path>
                <circle id="椭圆形" fill="url(#linearGradient-12)" cx="16.4564706" cy="19.0741176" r="1.17882353"></circle>
                <g id="编组" opacity="0.8" transform="translate(2.941176, 9.882353)">
                    <circle id="椭圆形" fill="url(#linearGradient-13)" cx="22.1576471" cy="26.0988235" r="1"></circle>
                    <circle id="椭圆形" fill="url(#linearGradient-14)" cx="18.9305882" cy="16.2505882" r="1"></circle>
                    <circle id="椭圆形" fill="url(#linearGradient-15)" cx="14.7764706" cy="31.0188235" r="1"></circle>
                    <circle id="椭圆形" fill="url(#linearGradient-16)" cx="8.85294118" cy="4.36235294" r="1"></circle>
                    <circle id="椭圆形" fill="url(#linearGradient-17)" cx="0.477647059" cy="13.9752941" r="1"></circle>
                    <circle id="椭圆形" fill="url(#linearGradient-18)" cx="33.0141176" cy="10.4047059" r="1"></circle>
                    <circle id="椭圆形" fill="url(#linearGradient-19)" cx="31.0058824" cy="30.4647059" r="1"></circle>
                    <circle id="椭圆形" fill="url(#linearGradient-17)" cx="31.2917647" cy="18.8929412" r="1"></circle>
                    <circle id="椭圆形" fill="url(#linearGradient-20)" cx="25.1188235" cy="33.0623529" r="1"></circle>
                    <circle id="椭圆形" fill="url(#linearGradient-21)" cx="21.5847059" cy="0.669411765" r="1"></circle>
                    <circle id="椭圆形" fill="url(#linearGradient-15)" cx="26.1917647" cy="3.91294118" r="1"></circle>
                </g>
            </g>
        </g>
    </g>
</svg>