<?xml version="1.0" encoding="UTF-8"?>
<svg width="48px" height="48px" viewBox="0 0 48 48" version="1.1" xmlns="http://www.w3.org/2000/svg" xmlns:xlink="http://www.w3.org/1999/xlink">
    <!-- Generator: Sketch 54.1 (76490) - https://sketchapp.com -->
    <title>icon/48/外遮阳</title>
    <desc>Created with Sketch.</desc>
    <defs>
        <linearGradient x1="49.9986882%" y1="102.333399%" x2="49.9986882%" y2="2.88301109%" id="linearGradient-1">
            <stop stop-color="#0095FF" offset="0%"></stop>
            <stop stop-color="#0095FF" stop-opacity="0.5" offset="43%"></stop>
            <stop stop-color="#0095FF" stop-opacity="0" offset="100%"></stop>
        </linearGradient>
        <linearGradient x1="50.0020421%" y1="102.333315%" x2="50.0020421%" y2="2.88120809%" id="linearGradient-2">
            <stop stop-color="#0095FF" offset="0%"></stop>
            <stop stop-color="#0095FF" stop-opacity="0.5" offset="43%"></stop>
            <stop stop-color="#0095FF" stop-opacity="0" offset="100%"></stop>
        </linearGradient>
        <linearGradient x1="37.1498173%" y1="37.7961269%" x2="67.2182788%" y2="66.3756256%" id="linearGradient-3">
            <stop stop-color="#0054CE" offset="1%"></stop>
            <stop stop-color="#007BE0" offset="100%"></stop>
        </linearGradient>
        <linearGradient x1="-0.0169190424%" y1="49.9919098%" x2="100%" y2="49.9919098%" id="linearGradient-4">
            <stop stop-color="#00D0FB" offset="1%"></stop>
            <stop stop-color="#0079EA" offset="98%"></stop>
        </linearGradient>
        <linearGradient x1="49.9926025%" y1="100.009028%" x2="49.9926025%" y2="0.00225833756%" id="linearGradient-5">
            <stop stop-color="#005EE5" offset="1%"></stop>
            <stop stop-color="#1883ED" offset="100%"></stop>
        </linearGradient>
        <linearGradient x1="49.9925695%" y1="84.3723744%" x2="49.9925695%" y2="24.9201815%" id="linearGradient-6">
            <stop stop-color="#023154" offset="2%"></stop>
            <stop stop-color="#05427F" offset="100%"></stop>
        </linearGradient>
        <linearGradient x1="50%" y1="84.369652%" x2="50%" y2="24.9096786%" id="linearGradient-7">
            <stop stop-color="#023154" offset="2%"></stop>
            <stop stop-color="#05427F" offset="100%"></stop>
        </linearGradient>
        <linearGradient x1="50%" y1="84.37268%" x2="50%" y2="24.9072012%" id="linearGradient-8">
            <stop stop-color="#023154" offset="2%"></stop>
            <stop stop-color="#05427F" offset="100%"></stop>
        </linearGradient>
        <linearGradient x1="50%" y1="84.3659044%" x2="50%" y2="24.9064449%" id="linearGradient-9">
            <stop stop-color="#023154" offset="2%"></stop>
            <stop stop-color="#05427F" offset="100%"></stop>
        </linearGradient>
        <linearGradient x1="0%" y1="49.9872416%" x2="100%" y2="49.9872416%" id="linearGradient-10">
            <stop stop-color="#023154" offset="2%"></stop>
            <stop stop-color="#05427F" offset="100%"></stop>
        </linearGradient>
        <linearGradient x1="100%" y1="49.9949995%" x2="0%" y2="49.9949995%" id="linearGradient-11">
            <stop stop-color="#023154" offset="2%"></stop>
            <stop stop-color="#05427F" offset="100%"></stop>
        </linearGradient>
        <linearGradient x1="100%" y1="49.994766%" x2="0%" y2="49.994766%" id="linearGradient-12">
            <stop stop-color="#023154" offset="2%"></stop>
            <stop stop-color="#05427F" offset="100%"></stop>
        </linearGradient>
        <linearGradient x1="100%" y1="49.994661%" x2="0%" y2="49.994661%" id="linearGradient-13">
            <stop stop-color="#023154" offset="2%"></stop>
            <stop stop-color="#05427F" offset="100%"></stop>
        </linearGradient>
        <linearGradient x1="100%" y1="50%" x2="0%" y2="50%" id="linearGradient-14">
            <stop stop-color="#023154" offset="2%"></stop>
            <stop stop-color="#05427F" offset="100%"></stop>
        </linearGradient>
        <linearGradient x1="23.2375979%" y1="-1.04438642%" x2="71.54047%" y2="91.383812%" id="linearGradient-15">
            <stop stop-color="#00CEFF" offset="1%"></stop>
            <stop stop-color="#DCFFF8" offset="100%"></stop>
        </linearGradient>
        <linearGradient x1="23.2394366%" y1="-1.05633803%" x2="71.4788732%" y2="91.3732394%" id="linearGradient-16">
            <stop stop-color="#00CEFF" offset="1%"></stop>
            <stop stop-color="#DCFFF8" offset="100%"></stop>
        </linearGradient>
        <linearGradient x1="23.3681462%" y1="-1.04438642%" x2="71.6710183%" y2="91.2532637%" id="linearGradient-17">
            <stop stop-color="#00CEFF" offset="1%"></stop>
            <stop stop-color="#DCFFF8" offset="100%"></stop>
        </linearGradient>
        <linearGradient x1="23.4317343%" y1="-0.922509225%" x2="71.5867159%" y2="91.3284133%" id="linearGradient-18">
            <stop stop-color="#00CEFF" offset="1%"></stop>
            <stop stop-color="#DCFFF8" offset="100%"></stop>
        </linearGradient>
        <linearGradient x1="23.2375979%" y1="-1.04438642%" x2="71.54047%" y2="91.2532637%" id="linearGradient-19">
            <stop stop-color="#00CEFF" offset="1%"></stop>
            <stop stop-color="#DCFFF8" offset="100%"></stop>
        </linearGradient>
        <linearGradient x1="23.2679739%" y1="-1.11111111%" x2="71.5686275%" y2="91.3071895%" id="linearGradient-20">
            <stop stop-color="#00CEFF" offset="1%"></stop>
            <stop stop-color="#DCFFF8" offset="100%"></stop>
        </linearGradient>
        <linearGradient x1="23.2902033%" y1="-1.1090573%" x2="71.6266174%" y2="91.3123845%" id="linearGradient-21">
            <stop stop-color="#00CEFF" offset="1%"></stop>
            <stop stop-color="#DCFFF8" offset="100%"></stop>
        </linearGradient>
        <linearGradient x1="23.3681462%" y1="-1.04438642%" x2="71.54047%" y2="91.2532637%" id="linearGradient-22">
            <stop stop-color="#00CEFF" offset="1%"></stop>
            <stop stop-color="#DCFFF8" offset="100%"></stop>
        </linearGradient>
        <linearGradient x1="23.2824427%" y1="-1.14503817%" x2="71.6284987%" y2="91.3486005%" id="linearGradient-23">
            <stop stop-color="#00CEFF" offset="1%"></stop>
            <stop stop-color="#DCFFF8" offset="100%"></stop>
        </linearGradient>
    </defs>
    <g id="组件" stroke="none" stroke-width="1" fill="none" fill-rule="evenodd">
        <g id="icon/48/外遮阳">
            <g id="资源-178" transform="translate(1.000000, 2.000000)">
                <rect id="矩形" x="0" y="0.253676471" width="45.6572549" height="45.6572549"></rect>
                <polyline id="路径" fill="url(#linearGradient-1)" fill-rule="nonzero" opacity="0.5" points="1.6675 37.2881863 16.5487255 45.9503922 44.642549 29.9811765 44.642549 0 1.6675 0"></polyline>
                <polyline id="路径" fill="url(#linearGradient-2)" fill-rule="nonzero" opacity="0.5" points="6.43210784 37.9263235 16.5848039 44.1329412 34.0377451 33.6803431 34.0377451 2.77127451 6.43210784 2.77127451"></polyline>
                <path d="M43.492549,28.405 L16.6490686,43.6323529 L3.57063725,36.0930882 L12.4921569,30.9428922 L14.2397059,29.9281863 L15.1089706,29.4264706 C15.8474562,30.6050743 16.423877,31.8777506 16.8226961,33.2101961 C16.8497549,33.3003922 16.8756863,33.3917157 16.9004902,33.4841667 L34.5890686,23.2581863 L34.5890686,23.2581863 L43.492549,28.405 Z" id="路径" fill="#C5CABF" fill-rule="nonzero"></path>
                <polygon id="路径" fill="url(#linearGradient-3)" fill-rule="nonzero" points="43.492549 28.405 16.6490686 43.6357353 16.8982353 33.4920588 34.5868137 23.2660784 43.4857843 18.1215196 43.4857843 18.1271569"></polygon>
                <path d="M16.8982353,33.7547549 L16.6490686,43.9018137 L3.57063725,36.362549 L3.57063725,26.0576471 C4.05926261,25.4396568 4.68546924,24.9443282 5.39936275,24.6111275 L5.39936275,24.6111275 C5.83148133,24.4065947 6.29163782,24.2675218 6.76470588,24.1984804 C7.71965686,24.0598039 8.87754902,24.1826961 10.2282353,24.8377451 C11.292549,25.3518627 13.4335784,27.0114706 15.1089706,29.6970588 C15.8470378,30.877192 16.4227081,32.1514029 16.8204412,33.4852941 C16.8475,33.5724837 16.8734314,33.6623039 16.8982353,33.7547549 Z" id="路径" fill="url(#linearGradient-4)" fill-rule="nonzero"></path>
                <path d="M43.4857843,18.3481373 L43.4857843,18.3425 L34.5868137,23.4870588 L16.8982353,33.7107843 C16.8734314,33.6194608 16.8475,33.5270098 16.8204412,33.4368137 C16.4221607,32.1040021 15.8461125,30.8309317 15.1078431,29.6519608 C13.432451,26.9663725 11.2914216,25.3067647 10.2271078,24.7926471 C8.87416667,24.137598 7.71852941,24.0135784 6.76357843,24.1533824 C6.288618,24.2351694 5.82846712,24.3871598 5.39823529,24.6043627 L31.2303922,9.64647059 L32.0297549,9.18421569 C33.1515686,8.66446078 34.764951,8.42544118 36.8281863,9.4254902 C38.3502451,10.1639706 42.0877451,13.2509314 43.5004412,18.3425 L43.4857843,18.3481373 Z" id="路径" fill="url(#linearGradient-5)" fill-rule="nonzero"></path>
                <polygon id="路径" fill="url(#linearGradient-6)" fill-rule="nonzero" points="24.0338725 24.2819118 24.2368137 24.3822549 24.2368137 26.5728922 16.6501961 30.9913725 16.6501961 28.5966667"></polygon>
                <polygon id="路径" fill="url(#linearGradient-7)" fill-rule="nonzero" points="31.1661275 20.1227451 31.1661275 22.5366176 25.1387745 26.0475 25.1387745 23.8241667 24.9651471 23.7373529 31.1582353 20.1182353"></polygon>
                <polygon id="路径" fill="url(#linearGradient-8)" fill-rule="nonzero" points="38.3152941 15.9365196 38.329951 15.9444118 38.329951 18.3639216 32.0680882 22.0112255 32.0680882 19.5872059"></polygon>
                <polygon id="路径" fill="url(#linearGradient-9)" fill-rule="nonzero" points="44.3415196 12.4154902 44.3415196 14.8631863 39.2319118 17.8385294 39.2319118 15.4009804"></polygon>
                <polygon id="路径" fill="url(#linearGradient-10)" fill-rule="nonzero" points="3.56838235 21.0562745 3.56838235 23.4521078 7.49303922 21.4813235 7.49303922 19.0336275"></polygon>
                <polygon id="路径" fill="url(#linearGradient-11)" fill-rule="nonzero" points="10.0433333 17.3232843 24.0338725 24.2819118 16.6501961 28.5966667 5.78946078 22.3370588 3.5695098 21.057402 3.58642157 21.0472549"></polygon>
                <polygon id="路径" fill="url(#linearGradient-12)" fill-rule="nonzero" points="31.1582353 20.1182353 24.9651471 23.7373529 10.9813725 16.7821078 17.5961275 12.9668137"></polygon>
                <polygon id="路径" fill="url(#linearGradient-13)" fill-rule="nonzero" points="24.4262255 9.02862745 38.3152941 15.9365196 32.0680882 19.5872059 32.0680882 19.5781863 18.5195098 12.4346569"></polygon>
                <polygon id="路径" fill="url(#linearGradient-14)" fill-rule="nonzero" points="39.2319118 15.4009804 39.2319118 15.3863235 25.3631373 8.48745098 30.9316176 5.27647059 44.3415196 12.4154902"></polygon>
                <circle id="椭圆形" fill="url(#linearGradient-15)" fill-rule="nonzero" cx="30.4580882" cy="28.3170588" r="1"></circle>
                <circle id="椭圆形" fill="url(#linearGradient-16)" fill-rule="nonzero" cx="27.3666176" cy="18.8802941" r="1"></circle>
                <circle id="椭圆形" fill="url(#linearGradient-17)" fill-rule="nonzero" cx="23.3844608" cy="33.0331863" r="1"></circle>
                <circle id="椭圆形" fill="url(#linearGradient-18)" fill-rule="nonzero" cx="17.7077451" cy="7.48740196" r="1"></circle>
                <circle id="椭圆形" fill="url(#linearGradient-19)" fill-rule="nonzero" cx="9.68142157" cy="16.6998039" r="1"></circle>
                <circle id="椭圆形" fill="url(#linearGradient-20)" fill-rule="nonzero" cx="40.8633333" cy="13.2779902" r="1"></circle>
                <circle id="椭圆形" fill="url(#linearGradient-21)" fill-rule="nonzero" cx="38.9376471" cy="32.5021569" r="1"></circle>
                <circle id="椭圆形" fill="url(#linearGradient-22)" fill-rule="nonzero" cx="39.2116176" cy="21.412549" r="1"></circle>
                <circle id="椭圆形" fill="url(#linearGradient-23)" fill-rule="nonzero" cx="33.2958824" cy="34.9915686" r="1"></circle>
                <circle id="椭圆形" fill="url(#linearGradient-21)" fill-rule="nonzero" cx="29.9090196" cy="3.94833333" r="1"></circle>
                <circle id="椭圆形" fill="url(#linearGradient-17)" fill-rule="nonzero" cx="34.3241176" cy="7.05671569" r="1"></circle>
            </g>
        </g>
    </g>
</svg>