<?xml version="1.0" encoding="UTF-8"?>
<svg width="16px" height="16px" viewBox="0 0 16 16" version="1.1" xmlns="http://www.w3.org/2000/svg" xmlns:xlink="http://www.w3.org/1999/xlink">
    <!-- Generator: Sketch 54.1 (76490) - https://sketchapp.com -->
    <title>icon/16px/传感器/总辐射选中</title>
    <desc>Created with Sketch.</desc>
    <g id="icon/16px/传感器/总辐射选中" stroke="none" stroke-width="1" fill="none" fill-rule="evenodd">
        <g id="太阳辐射" fill-rule="nonzero">
            <g id="编组">
                <rect id="矩形" fill="#000000" opacity="0" x="0" y="0" width="16" height="16"></rect>
                <path d="M13.2892746,13.9999879 C13.0976757,14.001095 12.9135191,13.9259199 12.7774848,13.7910686 L9.17333112,10.1890107 C8.92840956,9.90317996 8.9448766,9.47710413 9.21112916,9.21100639 C9.47738173,8.94490865 9.90370545,8.92845119 10.1897025,9.17323033 L13.7938561,12.7752883 C13.995775,12.9811101 14.0555001,13.2874081 13.9456861,13.553944 C13.8358722,13.8204799 13.5776611,13.9959392 13.2892746,13.9999879 Z M13.3356417,9.99998873 C13.1565425,10.0010235 12.9844002,9.93075962 12.8572406,9.80471821 L10.1620231,7.11133179 C9.93308006,6.8441746 9.9484728,6.4459346 10.1973553,6.1972212 C10.4462378,5.94850781 10.8447485,5.93312552 11.1120873,6.16191307 L13.8073048,8.8552995 C13.9960507,9.04767483 14.0518793,9.33396222 13.9492295,9.58308514 C13.8465798,9.83220806 13.6052141,9.99620448 13.3356417,9.99998873 Z M13.3356417,5.99998873 C13.1565425,6.0010235 12.9844002,5.93075962 12.8572406,5.80471821 L10.1620231,3.11133179 C9.93308006,2.8441746 9.9484728,2.4459346 10.1973553,2.1972212 C10.4462378,1.94850781 10.8447485,1.93312552 11.1120873,2.16191307 L13.8073048,4.8552995 C13.9960507,5.04767483 14.0518793,5.33396222 13.9492295,5.58308514 C13.8465798,5.83220806 13.6052141,5.99620448 13.3356417,5.99998873 Z M9.33564173,13.9999887 C9.15654251,14.0010235 8.9844002,13.9307596 8.85724062,13.8047182 L6.16202315,11.1113318 C5.93308006,10.8441746 5.9484728,10.4459346 6.19735528,10.1972212 C6.44623776,9.94850781 6.8447485,9.93312552 7.11208731,10.1619131 L9.80730478,12.8552995 C9.99605067,13.0476748 10.0518793,13.3339622 9.94922952,13.5830851 C9.84657976,13.8322081 9.60521412,13.9962045 9.33564173,13.9999887 Z M5.33564173,13.9999887 C5.15654251,14.0010235 4.9844002,13.9307596 4.85724062,13.8047182 L2.16202315,11.1113318 C1.93308006,10.8441746 1.9484728,10.4459346 2.19735528,10.1972212 C2.44623776,9.94850781 2.8447485,9.93312552 3.11208731,10.1619131 L5.80730478,12.8552995 C5.99605067,13.0476748 6.05187929,13.3339622 5.94922952,13.5830851 C5.84657976,13.8322081 5.60521412,13.9962045 5.33564173,13.9999887 Z M5.5,2 C3.56700338,2 2,3.56700338 2,5.5 C2,7.43299662 3.56700338,9 5.5,9 C7.43299662,9 9,7.43299662 9,5.5 C9,3.56700338 7.43299662,2 5.5,2 L5.5,2 Z" id="形状" fill="#FFFFFF"></path>
            </g>
        </g>
    </g>
</svg>