<?xml version="1.0" encoding="UTF-8"?>
<svg width="48px" height="48px" viewBox="0 0 48 48" version="1.1" xmlns="http://www.w3.org/2000/svg" xmlns:xlink="http://www.w3.org/1999/xlink">
    <!-- Generator: Sketch 54.1 (76490) - https://sketchapp.com -->
    <title>icon/48/负压风机</title>
    <desc>Created with Sketch.</desc>
    <defs>
        <linearGradient x1="0%" y1="49.9985766%" x2="100%" y2="49.9985766%" id="linearGradient-1">
            <stop stop-color="#01BF6C" offset="0%"></stop>
            <stop stop-color="#8DF7B8" offset="100%"></stop>
        </linearGradient>
        <linearGradient x1="0%" y1="50%" x2="100%" y2="50%" id="linearGradient-2">
            <stop stop-color="#008947" offset="0%"></stop>
            <stop stop-color="#26C465" offset="100%"></stop>
        </linearGradient>
        <linearGradient x1="0%" y1="50.0016643%" x2="100%" y2="50.0016643%" id="linearGradient-3">
            <stop stop-color="#017731" offset="0%"></stop>
            <stop stop-color="#17A349" offset="100%"></stop>
        </linearGradient>
        <linearGradient x1="2.36516456e-15%" y1="50%" x2="100.003329%" y2="50%" id="linearGradient-4">
            <stop stop-color="#05345E" offset="1%"></stop>
            <stop stop-color="#02541D" offset="99%"></stop>
        </linearGradient>
        <linearGradient x1="0%" y1="50%" x2="100%" y2="50%" id="linearGradient-5">
            <stop stop-color="#4FF7B7" offset="1%"></stop>
            <stop stop-color="#DCFFF8" offset="100%"></stop>
        </linearGradient>
        <linearGradient x1="50.1356571%" y1="102.542373%" x2="49.8643429%" y2="8.47457627%" id="linearGradient-6">
            <stop stop-color="#4FF7B7" offset="1%"></stop>
            <stop stop-color="#DCFFF8" offset="100%"></stop>
        </linearGradient>
        <linearGradient x1="50.1732829%" y1="102.536232%" x2="50%" y2="8.69565217%" id="linearGradient-7">
            <stop stop-color="#4FF7B7" offset="1%"></stop>
            <stop stop-color="#DCFFF8" offset="100%"></stop>
        </linearGradient>
        <linearGradient x1="50.1912343%" y1="102.59481%" x2="49.9043829%" y2="8.48303393%" id="linearGradient-8">
            <stop stop-color="#4FF7B7" offset="1%"></stop>
            <stop stop-color="#DCFFF8" offset="100%"></stop>
        </linearGradient>
        <linearGradient x1="50.1815221%" y1="102.648172%" x2="49.8789853%" y2="8.51197982%" id="linearGradient-9">
            <stop stop-color="#4FF7B7" offset="1%"></stop>
            <stop stop-color="#DCFFF8" offset="100%"></stop>
        </linearGradient>
        <linearGradient x1="50.0956171%" y1="102.49501%" x2="49.9043829%" y2="8.48303393%" id="linearGradient-10">
            <stop stop-color="#4FF7B7" offset="1%"></stop>
            <stop stop-color="#DCFFF8" offset="100%"></stop>
        </linearGradient>
        <linearGradient x1="50.1503523%" y1="102.664577%" x2="50%" y2="8.46394984%" id="linearGradient-11">
            <stop stop-color="#4FF7B7" offset="1%"></stop>
            <stop stop-color="#DCFFF8" offset="100%"></stop>
        </linearGradient>
        <linearGradient x1="-0.00745323005%" y1="49.9961446%" x2="100%" y2="49.9961446%" id="linearGradient-12">
            <stop stop-color="#008947" offset="0%"></stop>
            <stop stop-color="#26C465" offset="100%"></stop>
        </linearGradient>
        <linearGradient x1="0%" y1="49.9923657%" x2="99.9760016%" y2="49.9923657%" id="linearGradient-13">
            <stop stop-color="#017731" offset="0%"></stop>
            <stop stop-color="#17A349" offset="100%"></stop>
        </linearGradient>
        <linearGradient x1="43.4399941%" y1="55.8729581%" x2="52.0563599%" y2="45.7399137%" id="linearGradient-14">
            <stop stop-color="#008947" offset="0%"></stop>
            <stop stop-color="#26C465" offset="100%"></stop>
        </linearGradient>
        <linearGradient x1="47.0186105%" y1="52.8640209%" x2="55.3440928%" y2="43.7283427%" id="linearGradient-15">
            <stop stop-color="#017731" offset="0%"></stop>
            <stop stop-color="#17A349" offset="100%"></stop>
        </linearGradient>
        <linearGradient x1="55.3890373%" y1="56.4466459%" x2="46.9502127%" y2="47.2434419%" id="linearGradient-16">
            <stop stop-color="#008947" offset="0%"></stop>
            <stop stop-color="#26C465" offset="100%"></stop>
        </linearGradient>
        <linearGradient x1="52.1296817%" y1="54.1534251%" x2="43.6543899%" y2="44.2348837%" id="linearGradient-17">
            <stop stop-color="#017731" offset="0%"></stop>
            <stop stop-color="#17A349" offset="100%"></stop>
        </linearGradient>
        <linearGradient x1="99.9578955%" y1="49.9922875%" x2="-0.0495577072%" y2="49.9922875%" id="linearGradient-18">
            <stop stop-color="#008947" offset="0%"></stop>
            <stop stop-color="#26C465" offset="100%"></stop>
        </linearGradient>
        <linearGradient x1="99.9497103%" y1="50.0038559%" x2="-0.0262913744%" y2="50.0038559%" id="linearGradient-19">
            <stop stop-color="#017731" offset="0%"></stop>
            <stop stop-color="#17A349" offset="100%"></stop>
        </linearGradient>
        <linearGradient x1="56.5397907%" y1="44.1280472%" x2="47.9252039%" y2="54.2560705%" id="linearGradient-20">
            <stop stop-color="#008947" offset="0%"></stop>
            <stop stop-color="#26C465" offset="100%"></stop>
        </linearGradient>
        <linearGradient x1="52.9567899%" y1="47.130507%" x2="44.6343644%" y2="56.2603827%" id="linearGradient-21">
            <stop stop-color="#017731" offset="0%"></stop>
            <stop stop-color="#17A349" offset="100%"></stop>
        </linearGradient>
        <linearGradient x1="44.6156228%" y1="43.550004%" x2="53.0537374%" y2="52.7486066%" id="linearGradient-22">
            <stop stop-color="#008947" offset="0%"></stop>
            <stop stop-color="#26C465" offset="100%"></stop>
        </linearGradient>
        <linearGradient x1="47.8775175%" y1="45.8437855%" x2="56.3510653%" y2="55.7598991%" id="linearGradient-23">
            <stop stop-color="#017731" offset="0%"></stop>
            <stop stop-color="#17A349" offset="100%"></stop>
        </linearGradient>
        <linearGradient x1="0%" y1="49.9983357%" x2="100%" y2="49.9983357%" id="linearGradient-24">
            <stop stop-color="#01BF6C" offset="0%"></stop>
            <stop stop-color="#8DF7B8" offset="100%"></stop>
        </linearGradient>
        <linearGradient x1="1.00643447e-13%" y1="50%" x2="100%" y2="50%" id="linearGradient-25">
            <stop stop-color="#01BF6C" offset="0%"></stop>
            <stop stop-color="#8DF7B8" offset="100%"></stop>
        </linearGradient>
        <linearGradient x1="85.3572415%" y1="85.3557048%" x2="45.1060843%" y2="45.1045476%" id="linearGradient-26">
            <stop stop-color="#00F3FF" offset="0%"></stop>
            <stop stop-color="#12F4FF" stop-opacity="0.93" offset="10%"></stop>
            <stop stop-color="#40F6FF" stop-opacity="0.75" offset="31%"></stop>
            <stop stop-color="#8AFAFF" stop-opacity="0.46" offset="59%"></stop>
            <stop stop-color="#F0FEFF" stop-opacity="0.06" offset="95%"></stop>
            <stop stop-color="#FFFFFF" stop-opacity="0" offset="100%"></stop>
        </linearGradient>
        <linearGradient x1="-571.032776%" y1="863.240305%" x2="-514.108389%" y2="863.240305%" id="linearGradient-27">
            <stop stop-color="#00F3FF" offset="0%"></stop>
            <stop stop-color="#12F4FF" stop-opacity="0.93" offset="10%"></stop>
            <stop stop-color="#40F6FF" stop-opacity="0.75" offset="31%"></stop>
            <stop stop-color="#8AFAFF" stop-opacity="0.46" offset="59%"></stop>
            <stop stop-color="#F0FEFF" stop-opacity="0.06" offset="95%"></stop>
            <stop stop-color="#FFFFFF" stop-opacity="0" offset="100%"></stop>
        </linearGradient>
        <linearGradient x1="14.6463918%" y1="85.3538862%" x2="54.8965828%" y2="45.1036952%" id="linearGradient-28">
            <stop stop-color="#00F3FF" offset="0%"></stop>
            <stop stop-color="#12F4FF" stop-opacity="0.93" offset="10%"></stop>
            <stop stop-color="#40F6FF" stop-opacity="0.75" offset="31%"></stop>
            <stop stop-color="#8AFAFF" stop-opacity="0.46" offset="59%"></stop>
            <stop stop-color="#F0FEFF" stop-opacity="0.06" offset="95%"></stop>
            <stop stop-color="#FFFFFF" stop-opacity="0" offset="100%"></stop>
        </linearGradient>
    </defs>
    <g id="组件" stroke="none" stroke-width="1" fill="none" fill-rule="evenodd">
        <g id="icon/48/负压风机">
            <g id="资源-190">
                <rect id="矩形" x="0" y="0" width="47.9952593" height="47.9952593"></rect>
                <rect id="矩形" fill="url(#linearGradient-1)" fill-rule="nonzero" x="3.15496296" y="3.65866667" width="41.632" height="41.632"></rect>
                <rect id="矩形" fill="url(#linearGradient-2)" fill-rule="nonzero" x="5.07259259" y="5.5762963" width="37.7955556" height="37.7955556"></rect>
                <rect id="矩形" fill="url(#linearGradient-3)" fill-rule="nonzero" x="6.1677037" y="6.67022222" width="35.6065185" height="35.6065185"></rect>
                <circle id="椭圆形" fill="url(#linearGradient-4)" fill-rule="nonzero" cx="23.9703704" cy="24.4740741" r="17.8026667"></circle>
                <ellipse id="椭圆形" fill="url(#linearGradient-5)" fill-rule="nonzero" opacity="0.8" cx="23.6325926" cy="33.0571852" rx="1" ry="1"></ellipse>
                <ellipse id="椭圆形" fill="url(#linearGradient-6)" fill-rule="nonzero" opacity="0.8" cx="33.5893333" cy="11.2983704" rx="1" ry="1"></ellipse>
                <ellipse id="椭圆形" fill="url(#linearGradient-7)" fill-rule="nonzero" opacity="0.8" cx="22.866963" cy="22.7247407" rx="1" ry="1"></ellipse>
                <ellipse id="椭圆形" fill="url(#linearGradient-8)" fill-rule="nonzero" opacity="0.8" cx="22.5872593" cy="14.7282963" rx="1" ry="1"></ellipse>
                <ellipse id="椭圆形" fill="url(#linearGradient-9)" fill-rule="nonzero" opacity="0.8" cx="13.9377778" cy="23.858963" rx="1" ry="1"></ellipse>
                <ellipse id="椭圆形" fill="url(#linearGradient-10)" fill-rule="nonzero" opacity="0.8" cx="8.92088889" cy="16.0711111" rx="1" ry="1"></ellipse>
                <ellipse id="椭圆形" fill="url(#linearGradient-11)" fill-rule="nonzero" opacity="0.8" cx="31.5697778" cy="25.024" rx="1" ry="1"></ellipse>
                <ellipse id="椭圆形" fill="url(#linearGradient-8)" fill-rule="nonzero" opacity="0.8" cx="37.5940741" cy="17.2065185" rx="1" ry="1"></ellipse>
                <path d="M23.9715556,8.20859224 L23.9715556,23.5745185 L22.4853333,23.5745185 C22.2378119,23.5744695 22.0011004,23.4730944 21.8302674,23.2939773 C21.6594344,23.1148601 21.5693737,22.8736169 21.581037,22.6263704 L22.162963,9.07496296 C22.1833029,8.59040418 22.582274,8.20816588 23.0672593,8.20859259 L23.9715556,8.20859224 Z" id="路径" fill="url(#linearGradient-12)" fill-rule="nonzero"></path>
                <path d="M26.3277037,22.637037 C26.3363828,22.8827896 26.2448681,23.1215269 26.0741431,23.2985088 C25.9034181,23.4754907 25.6681279,23.5755355 25.4222222,23.5757037 L23.9715556,23.5757037 L23.9715556,8.20856855 L24.9256296,8.20859259 C25.41533,8.20505914 25.8191022,8.59150425 25.837037,9.08088889 L26.3277037,22.637037 Z" id="路径" fill="url(#linearGradient-13)" fill-rule="nonzero"></path>
                <g id="编组" transform="translate(22.992593, 19.674074)" fill-rule="nonzero">
                    <polygon id="路径" fill="#008947" points="0.0628148148 0.0948148148 0.0592592593 0.0948148148 0.0592592593 0.0948148148"></polygon>
                    <polygon id="路径" fill="#008A47" points="1.86311111 0.106666667 0.0592592593 0.288 0.0592592593 0.0948148148 0.0628148148 0.0948148148 1.86311111 0.0948148148"></polygon>
                    <polygon id="路径" fill="#008B47" points="1.86311111 0.299851852 0.0592592593 0.48 0.0592592593 0.288 1.86311111 0.106666667"></polygon>
                    <polygon id="路径" fill="#018C46" points="1.86311111 0.491851852 0.0592592593 0.673185185 0.0592592593 0.48 1.86311111 0.299851852"></polygon>
                    <polygon id="路径" fill="#018D46" points="1.86311111 0.685037037 0.0592592593 0.86637037 0.0592592593 0.673185185 1.86311111 0.491851852"></polygon>
                    <polygon id="路径" fill="#018E46" points="1.86311111 0.878222222 0.0592592593 1.05837037 0.0592592593 0.86637037 1.86311111 0.685037037"></polygon>
                    <polygon id="路径" fill="#018F46" points="1.86311111 1.07022222 0.0592592593 1.25155556 0.0592592593 1.05837037 1.86311111 0.878222222"></polygon>
                    <polygon id="路径" fill="#029046" points="1.86311111 1.26340741 0.0592592593 1.44474074 0.0592592593 1.25155556 1.86311111 1.07022222"></polygon>
                    <polygon id="路径" fill="#029145" points="1.86311111 1.45540741 0.0592592593 1.63674074 0.0592592593 1.44474074 1.86311111 1.26340741"></polygon>
                    <polygon id="路径" fill="#029245" points="1.86311111 1.64859259 0.0592592593 1.82992593 0.0592592593 1.63674074 1.86311111 1.45540741"></polygon>
                    <polygon id="路径" fill="#029345" points="1.86311111 1.84177778 0.0592592593 2.02311111 0.0592592593 1.82992593 1.86311111 1.64859259"></polygon>
                    <polygon id="路径" fill="#039445" points="1.86311111 2.03377778 0.0592592593 2.21511111 0.0592592593 2.02311111 1.86311111 1.84177778"></polygon>
                    <polygon id="路径" fill="#039545" points="1.86311111 2.22696296 0.0592592593 2.4082963 0.0592592593 2.21511111 1.86311111 2.03377778"></polygon>
                    <polygon id="路径" fill="#039644" points="1.86311111 2.42014815 0.0592592593 2.60148148 0.0592592593 2.4082963 1.86311111 2.22696296"></polygon>
                    <polygon id="路径" fill="#039744" points="1.86311111 2.61214815 0.0592592593 2.79348148 0.0592592593 2.60148148 1.86311111 2.42014815"></polygon>
                    <polygon id="路径" fill="#049944" points="1.86311111 2.80533333 0.0592592593 2.98666667 0.0592592593 2.79348148 1.86311111 2.61214815"></polygon>
                    <polygon id="路径" fill="#049A44" points="1.86311111 2.99851852 0.0592592593 3.17985185 0.0592592593 2.98666667 1.86311111 2.80533333"></polygon>
                    <polygon id="路径" fill="#049B44" points="1.86311111 3.19051852 0.0592592593 3.37185185 0.0592592593 3.17985185 1.86311111 2.99851852"></polygon>
                    <polygon id="路径" fill="#049C43" points="1.86311111 3.3837037 0.0592592593 3.56503704 0.0592592593 3.37185185 1.86311111 3.19051852"></polygon>
                    <polygon id="路径" fill="#049D43" points="1.86311111 3.57688889 0.0592592593 3.75822222 0.0592592593 3.56503704 1.86311111 3.3837037"></polygon>
                    <polygon id="路径" fill="#059E43" points="1.86311111 3.76888889 0.0592592593 3.95022222 0.0592592593 3.75822222 1.86311111 3.57688889"></polygon>
                    <polygon id="路径" fill="#059F43" points="1.86311111 3.96207407 0.0592592593 4.14340741 0.0592592593 3.95022222 1.86311111 3.76888889"></polygon>
                    <polygon id="路径" fill="#05A043" points="1.86311111 4.15525926 0.0592592593 4.33659259 0.0592592593 4.14340741 1.86311111 3.96207407"></polygon>
                    <polygon id="路径" fill="#05A142" points="1.86311111 4.34725926 0.0592592593 4.52859259 0.0592592593 4.33659259 1.86311111 4.15525926"></polygon>
                    <polygon id="路径" fill="#06A242" points="1.86311111 4.54044444 0.0592592593 4.72177778 0.0592592593 4.52859259 1.86311111 4.34725926"></polygon>
                    <polygon id="路径" fill="#06A342" points="1.86311111 4.73362963 1.19940741 4.8 0.0592592593 4.8 0.0592592593 4.72177778 1.86311111 4.54044444"></polygon>
                    <polygon id="路径" fill="#06A442" points="1.19940741 4.8 1.86311111 4.73362963 1.86311111 4.8"></polygon>
                </g>
                <path d="M9.92948148,16.3757037 L23.2367407,24.0592593 L22.4936296,25.3463704 C22.3700198,25.5601004 22.1645927,25.7141761 21.9248031,25.7730051 C21.6850135,25.831834 21.4316031,25.7903276 21.2231111,25.6580741 L9.77422222,18.3786667 C9.36602035,18.1165349 9.23692967,17.5792668 9.48148148,17.1602963 L9.92948148,16.3757037 Z" id="路径" fill="url(#linearGradient-14)" fill-rule="nonzero"></path>
                <path d="M23.6017778,21.549037 C23.8181945,21.6649649 23.9782602,21.863803 24.0452939,22.099985 C24.1123276,22.336167 24.0805825,22.5894453 23.9573333,22.8017778 L23.2367407,24.0592593 L9.92948148,16.3757037 L10.4035556,15.5460741 C10.6489724,15.1242247 11.1839924,14.9718853 11.6148148,15.2011852 L23.6017778,21.549037 Z" id="路径" fill="url(#linearGradient-15)" fill-rule="nonzero"></path>
                <g id="编组" transform="translate(19.318519, 21.333333)" fill-rule="nonzero">
                    <polygon id="路径" fill="#008947" points="0.163555556 1.61659259 0.163555556 1.61896296 0.163555556 1.61777778"></polygon>
                    <polygon id="路径" fill="#008A47" points="1.07496296 0.0628148148 0.329481481 1.71496296 0.163555556 1.61896296 0.163555556 1.61659259 1.0642963 0.0568888889"></polygon>
                    <polygon id="路径" fill="#008B47" points="1.24207407 0.158814815 0.496592593 1.81096296 0.329481481 1.71496296 1.07496296 0.0628148148"></polygon>
                    <polygon id="路径" fill="#018C46" points="1.408 0.256 0.663703704 1.90696296 0.496592593 1.81096296 1.24207407 0.158814815"></polygon>
                    <polygon id="路径" fill="#018D46" points="1.57511111 0.352 0.830814815 2.00414815 0.663703704 1.90696296 1.408 0.256"></polygon>
                    <polygon id="路径" fill="#018E46" points="1.74222222 0.448 0.997925926 2.10014815 0.830814815 2.00414815 1.57511111 0.352"></polygon>
                    <polygon id="路径" fill="#018F46" points="1.90933333 0.545185185 1.16503704 2.19614815 0.997925926 2.10014815 1.74222222 0.448"></polygon>
                    <polygon id="路径" fill="#029046" points="2.07644444 0.641185185 1.33214815 2.29333333 1.16503704 2.19614815 1.90933333 0.545185185"></polygon>
                    <polygon id="路径" fill="#029145" points="2.24355556 0.737185185 1.49925926 2.38933333 1.33214815 2.29333333 2.07644444 0.641185185"></polygon>
                    <polygon id="路径" fill="#029245" points="2.41066667 0.83437037 1.66637037 2.48533333 1.49925926 2.38933333 2.24355556 0.737185185"></polygon>
                    <polygon id="路径" fill="#029345" points="2.57777778 0.93037037 1.8322963 2.58251852 1.66637037 2.48533333 2.41066667 0.83437037"></polygon>
                    <polygon id="路径" fill="#039445" points="2.7437037 1.02637037 1.99940741 2.67851852 1.8322963 2.58251852 2.57777778 0.93037037"></polygon>
                    <polygon id="路径" fill="#039545" points="2.91081481 1.12355556 2.16651852 2.77451852 1.99940741 2.67851852 2.7437037 1.02637037"></polygon>
                    <polygon id="路径" fill="#039644" points="3.07792593 1.21955556 2.33362963 2.8717037 2.16651852 2.77451852 2.91081481 1.12355556"></polygon>
                    <polygon id="路径" fill="#039744" points="3.24503704 1.31555556 2.50074074 2.9677037 2.33362963 2.8717037 3.07792593 1.21955556"></polygon>
                    <polygon id="路径" fill="#049944" points="3.41214815 1.41274074 2.66785185 3.0637037 2.50074074 2.9677037 3.24503704 1.31555556"></polygon>
                    <polygon id="路径" fill="#049A44" points="3.57925926 1.50874074 2.83496296 3.16088889 2.66785185 3.0637037 3.41214815 1.41274074"></polygon>
                    <polygon id="路径" fill="#049B44" points="3.74637037 1.60474074 3.00088889 3.25688889 2.83496296 3.16088889 3.57925926 1.50874074"></polygon>
                    <polygon id="路径" fill="#049C43" points="3.9122963 1.70192593 3.168 3.35288889 3.00088889 3.25688889 3.74637037 1.60474074"></polygon>
                    <polygon id="路径" fill="#049D43" points="4.07940741 1.79792593 3.33511111 3.45007407 3.168 3.35288889 3.9122963 1.70192593"></polygon>
                    <polygon id="路径" fill="#059E43" points="4.24651852 1.89392593 3.50222222 3.54607407 3.33511111 3.45007407 4.07940741 1.79792593"></polygon>
                    <polygon id="路径" fill="#059F43" points="4.41362963 1.99111111 3.66933333 3.64325926 3.50222222 3.54607407 4.24651852 1.89392593"></polygon>
                    <polygon id="路径" fill="#05A043" points="4.58074074 2.08711111 3.83644444 3.73925926 3.66933333 3.64325926 4.41362963 1.99111111"></polygon>
                    <polygon id="路径" fill="#05A142" points="4.74785185 2.18311111 4.00355556 3.83525926 3.83644444 3.73925926 4.58074074 2.08711111"></polygon>
                    <polygon id="路径" fill="#06A242" points="4.91496296 2.2802963 4.17066667 3.93244444 4.00355556 3.83525926 4.74785185 2.18311111"></polygon>
                    <polygon id="路径" fill="#06A342" points="5.08207407 2.3762963 4.80711111 2.9842963 4.23822222 3.97037037 4.17066667 3.93244444 4.91496296 2.2802963"></polygon>
                    <polygon id="路径" fill="#06A442" points="4.80711111 2.9842963 5.08207407 2.3762963 5.13896296 2.40948148"></polygon>
                </g>
                <path d="M9.98162963,32.6198519 L23.2888889,24.9374815 L24.032,26.2245926 C24.1548801,26.4385271 24.185273,26.6932987 24.1161675,26.930136 C24.047062,27.1669733 23.8844263,27.3654221 23.6657778,27.4797037 L11.6373333,33.7552593 C11.2062774,33.9827528 10.6724864,33.8282205 10.4296296,33.4056296 L9.98162963,32.6198519 Z" id="路径" fill="url(#linearGradient-16)" fill-rule="nonzero"></path>
                <path d="M21.2977778,23.3659259 C21.5063286,23.2355266 21.7589088,23.1954528 21.9975797,23.2548971 C22.2362506,23.3143413 22.4405289,23.4682019 22.5635556,23.6811852 L23.2888889,24.9374815 L9.98162963,32.6198519 L9.50755556,31.7902222 C9.26882355,31.3706902 9.40064539,30.8376715 9.80740741,30.5777778 L21.2977778,23.3659259 Z" id="路径" fill="url(#linearGradient-17)" fill-rule="nonzero"></path>
                <g id="编组" transform="translate(19.437037, 23.703704)" fill-rule="nonzero">
                    <polygon id="路径" fill="#008947" points="1.01451852 3.93007407 1.0157037 3.93125926 1.0157037 3.93244444"></polygon>
                    <polygon id="路径" fill="#008A47" points="0.124444444 2.36444444 1.18281481 3.83525926 1.0157037 3.93125926 1.01451852 3.93007407 0.113777778 2.37037037"></polygon>
                    <polygon id="路径" fill="#008B47" points="0.291555556 2.26844444 1.34992593 3.73925926 1.18281481 3.83525926 0.124444444 2.36444444"></polygon>
                    <polygon id="路径" fill="#018C46" points="0.458666667 2.17125926 1.51585185 3.64207407 1.34992593 3.73925926 0.291555556 2.26844444"></polygon>
                    <polygon id="路径" fill="#018D46" points="0.624592593 2.07525926 1.68296296 3.54607407 1.51585185 3.64207407 0.458666667 2.17125926"></polygon>
                    <polygon id="路径" fill="#018E46" points="0.791703704 1.97925926 1.85007407 3.45007407 1.68296296 3.54607407 0.624592593 2.07525926"></polygon>
                    <polygon id="路径" fill="#018F46" points="0.958814815 1.88207407 2.01718519 3.35288889 1.85007407 3.45007407 0.791703704 1.97925926"></polygon>
                    <polygon id="路径" fill="#029046" points="1.12592593 1.78607407 2.1842963 3.25688889 2.01718519 3.35288889 0.958814815 1.88207407"></polygon>
                    <polygon id="路径" fill="#029145" points="1.29303704 1.69007407 2.35140741 3.16088889 2.1842963 3.25688889 1.12592593 1.78607407"></polygon>
                    <polygon id="路径" fill="#029245" points="1.46014815 1.59407407 2.51851852 3.0637037 2.35140741 3.16088889 1.29303704 1.69007407"></polygon>
                    <polygon id="路径" fill="#029345" points="1.62725926 1.49688889 2.68562963 2.9677037 2.51851852 3.0637037 1.46014815 1.59407407"></polygon>
                    <polygon id="路径" fill="#039445" points="1.79318519 1.40088889 2.85155556 2.8717037 2.68562963 2.9677037 1.62725926 1.49688889"></polygon>
                    <polygon id="路径" fill="#039545" points="1.9602963 1.30488889 3.01866667 2.77451852 2.85155556 2.8717037 1.79318519 1.40088889"></polygon>
                    <polygon id="路径" fill="#039644" points="2.12740741 1.2077037 3.18577778 2.67851852 3.01866667 2.77451852 1.9602963 1.30488889"></polygon>
                    <polygon id="路径" fill="#039744" points="2.29451852 1.1117037 3.35288889 2.58251852 3.18577778 2.67851852 2.12740741 1.2077037"></polygon>
                    <polygon id="路径" fill="#049944" points="2.46162963 1.0157037 3.52 2.48533333 3.35288889 2.58251852 2.29451852 1.1117037"></polygon>
                    <polygon id="路径" fill="#049A44" points="2.62874074 0.918518519 3.68711111 2.38933333 3.52 2.48533333 2.46162963 1.0157037"></polygon>
                    <polygon id="路径" fill="#049B44" points="2.79585185 0.822518519 3.85422222 2.29333333 3.68711111 2.38933333 2.62874074 0.918518519"></polygon>
                    <polygon id="路径" fill="#049C43" points="2.96296296 0.726518519 4.02133333 2.19614815 3.85422222 2.29333333 2.79585185 0.822518519"></polygon>
                    <polygon id="路径" fill="#049D43" points="3.13007407 0.629333333 4.18725926 2.10014815 4.02133333 2.19614815 2.96296296 0.726518519"></polygon>
                    <polygon id="路径" fill="#059E43" points="3.296 0.533333333 4.35437037 2.00414815 4.18725926 2.10014815 3.13007407 0.629333333"></polygon>
                    <polygon id="路径" fill="#059F43" points="3.46311111 0.437333333 4.52148148 1.90696296 4.35437037 2.00414815 3.296 0.533333333"></polygon>
                    <polygon id="路径" fill="#05A043" points="3.63022222 0.340148148 4.68859259 1.81096296 4.52148148 1.90696296 3.46311111 0.437333333"></polygon>
                    <polygon id="路径" fill="#05A142" points="3.79733333 0.244148148 4.8557037 1.71496296 4.68859259 1.81096296 3.63022222 0.340148148"></polygon>
                    <polygon id="路径" fill="#06A242" points="3.96444444 0.148148148 5.02281481 1.61896296 4.8557037 1.71496296 3.79733333 0.244148148"></polygon>
                    <polygon id="路径" fill="#06A342" points="4.13155556 0.050962963 4.5202963 0.592592593 5.09037037 1.57866667 5.02281481 1.61896296 3.96444444 0.148148148"></polygon>
                    <polygon id="路径" fill="#06A442" points="4.5202963 0.592592593 4.13155556 0.050962963 4.18844444 0.0177777778"></polygon>
                </g>
                <path d="M24.0758519,40.6968889 L24.0758519,25.330963 L25.5620741,25.330963 C25.8095955,25.331012 26.046307,25.432387 26.21714,25.6115042 C26.387973,25.7906214 26.4780337,26.0318646 26.4663704,26.2791111 L25.8868148,39.8340741 C25.8664749,40.3186329 25.4675038,40.7008712 24.9825185,40.7004444 L24.0758519,40.6968889 Z" id="路径" fill="url(#linearGradient-18)" fill-rule="nonzero"></path>
                <path d="M21.7197037,26.2696296 C21.7110246,26.0238771 21.8025393,25.7851398 21.9732643,25.6081579 C22.1439893,25.4311759 22.3792795,25.3311312 22.6251852,25.330963 L24.0758519,25.330963 L24.0758519,40.6968891 L23.1277037,40.6968889 C22.6402982,40.6972163 22.2400851,40.3116708 22.2222222,39.8245926 L21.7197037,26.2696296 Z" id="路径" fill="url(#linearGradient-19)" fill-rule="nonzero"></path>
                <g id="编组" transform="translate(23.111111, 24.296296)" fill-rule="nonzero">
                    <polygon id="路径" fill="#008947" points="1.88088889 4.8402963 1.88325926 4.8402963 1.88325926 4.8402963"></polygon>
                    <polygon id="路径" fill="#008A47" points="0.0805925926 4.82844444 1.88325926 4.64711111 1.88325926 4.8402963 1.88088889 4.8402963 0.0805925926 4.8402963"></polygon>
                    <polygon id="路径" fill="#008B47" points="0.0805925926 4.63525926 1.88325926 4.45511111 1.88325926 4.64711111 0.0805925926 4.82844444"></polygon>
                    <polygon id="路径" fill="#018C46" points="0.0805925926 4.44325926 1.88325926 4.26192593 1.88325926 4.45511111 0.0805925926 4.63525926"></polygon>
                    <polygon id="路径" fill="#018D46" points="0.0805925926 4.25007407 1.88325926 4.06874074 1.88325926 4.26192593 0.0805925926 4.44325926"></polygon>
                    <polygon id="路径" fill="#018E46" points="0.0805925926 4.05807407 1.88325926 3.87674074 1.88325926 4.06874074 0.0805925926 4.25007407"></polygon>
                    <polygon id="路径" fill="#018F46" points="0.0805925926 3.86488889 1.88325926 3.68355556 1.88325926 3.87674074 0.0805925926 4.05807407"></polygon>
                    <polygon id="路径" fill="#029046" points="0.0805925926 3.6717037 1.88325926 3.49037037 1.88325926 3.68355556 0.0805925926 3.86488889"></polygon>
                    <polygon id="路径" fill="#029145" points="0.0805925926 3.47851852 1.88325926 3.29837037 1.88325926 3.49037037 0.0805925926 3.6717037"></polygon>
                    <polygon id="路径" fill="#029245" points="0.0805925926 3.28651852 1.88325926 3.10518519 1.88325926 3.29837037 0.0805925926 3.47851852"></polygon>
                    <polygon id="路径" fill="#029345" points="0.0805925926 3.09333333 1.88325926 2.912 1.88325926 3.10518519 0.0805925926 3.28651852"></polygon>
                    <polygon id="路径" fill="#039445" points="0.0805925926 2.90014815 1.88325926 2.72 1.88325926 2.912 0.0805925926 3.09333333"></polygon>
                    <polygon id="路径" fill="#039545" points="0.0805925926 2.70814815 1.88325926 2.52681481 1.88325926 2.72 0.0805925926 2.90014815"></polygon>
                    <polygon id="路径" fill="#039644" points="0.0805925926 2.51496296 1.88325926 2.33362963 1.88325926 2.52681481 0.0805925926 2.70814815"></polygon>
                    <polygon id="路径" fill="#039744" points="0.0805925926 2.32177778 1.88325926 2.14162963 1.88325926 2.33362963 0.0805925926 2.51496296"></polygon>
                    <polygon id="路径" fill="#049944" points="0.0805925926 2.12977778 1.88325926 1.94844444 1.88325926 2.14162963 0.0805925926 2.32177778"></polygon>
                    <polygon id="路径" fill="#049A44" points="0.0805925926 1.93659259 1.88325926 1.75525926 1.88325926 1.94844444 0.0805925926 2.12977778"></polygon>
                    <polygon id="路径" fill="#049B44" points="0.0805925926 1.74459259 1.88325926 1.56325926 1.88325926 1.75525926 0.0805925926 1.93659259"></polygon>
                    <polygon id="路径" fill="#049C43" points="0.0805925926 1.55140741 1.88325926 1.37007407 1.88325926 1.56325926 0.0805925926 1.74459259"></polygon>
                    <polygon id="路径" fill="#049D43" points="0.0805925926 1.35822222 1.88325926 1.17688889 1.88325926 1.37007407 0.0805925926 1.55140741"></polygon>
                    <polygon id="路径" fill="#059E43" points="0.0805925926 1.16622222 1.88325926 0.984888889 1.88325926 1.17688889 0.0805925926 1.35822222"></polygon>
                    <polygon id="路径" fill="#059F43" points="0.0805925926 0.973037037 1.88325926 0.791703704 1.88325926 0.984888889 0.0805925926 1.16622222"></polygon>
                    <polygon id="路径" fill="#05A043" points="0.0805925926 0.779851852 1.88325926 0.598518519 1.88325926 0.791703704 0.0805925926 0.973037037"></polygon>
                    <polygon id="路径" fill="#05A142" points="0.0805925926 0.587851852 1.88325926 0.406518519 1.88325926 0.598518519 0.0805925926 0.779851852"></polygon>
                    <polygon id="路径" fill="#06A242" points="0.0805925926 0.394666667 1.88325926 0.213333333 1.88325926 0.406518519 0.0805925926 0.587851852"></polygon>
                    <polygon id="路径" fill="#06A342" points="0.0805925926 0.201481481 0.743111111 0.135111111 1.88325926 0.135111111 1.88325926 0.213333333 0.0805925926 0.394666667"></polygon>
                    <polygon id="路径" fill="#06A442" points="0.743111111 0.135111111 0.0805925926 0.201481481 0.0805925926 0.135111111"></polygon>
                </g>
                <path d="M38.1179259,32.5297778 L24.8106667,24.8474074 L25.5537778,23.5602963 C25.6769156,23.3463817 25.8821416,23.1920966 26.1218447,23.1332339 C26.3615477,23.0743713 26.6148948,23.116047 26.8231111,23.2485926 L38.2731852,30.528 C38.6822247,30.7880935 38.813438,31.3244479 38.5706667,31.744 L38.1179259,32.5297778 Z" id="路径" fill="url(#linearGradient-20)" fill-rule="nonzero"></path>
                <path d="M24.4456296,27.3564444 C24.2289635,27.2407611 24.0686741,27.0419216 24.0016118,26.8056389 C23.9345496,26.5693562 23.9664842,26.3159592 24.0900741,26.1037037 L24.8154074,24.8474074 L38.1226667,32.5297778 L37.6485926,33.3594074 C37.405335,33.7815632 36.8716394,33.9355441 36.4408889,33.7078519 L24.4456296,27.3564444 Z" id="路径" fill="url(#linearGradient-21)" fill-rule="nonzero"></path>
                <g id="编组" transform="translate(23.585185, 23.585185)" fill-rule="nonzero">
                    <polygon id="路径" fill="#008947" points="4.97896296 2.37037037 4.98014815 2.368 4.98014815 2.36918519"></polygon>
                    <polygon id="路径" fill="#008A47" points="4.06874074 3.92414815 4.81303704 2.272 4.98014815 2.368 4.97896296 2.37037037 4.07822222 3.93007407"></polygon>
                    <polygon id="路径" fill="#008B47" points="3.90162963 3.82696296 4.64592593 2.176 4.81303704 2.272 4.06874074 3.92414815"></polygon>
                    <polygon id="路径" fill="#018C46" points="3.73451852 3.73096296 4.47881481 2.07881481 4.64592593 2.176 3.90162963 3.82696296"></polygon>
                    <polygon id="路径" fill="#018D46" points="3.56740741 3.63496296 4.3117037 1.98281481 4.47881481 2.07881481 3.73451852 3.73096296"></polygon>
                    <polygon id="路径" fill="#018E46" points="3.4002963 3.53896296 4.14459259 1.88681481 4.3117037 1.98281481 3.56740741 3.63496296"></polygon>
                    <polygon id="路径" fill="#018F46" points="3.23318519 3.44177778 3.97866667 1.78962963 4.14459259 1.88681481 3.4002963 3.53896296"></polygon>
                    <polygon id="路径" fill="#029046" points="3.06725926 3.34577778 3.81155556 1.69362963 3.97866667 1.78962963 3.23318519 3.44177778"></polygon>
                    <polygon id="路径" fill="#029145" points="2.90014815 3.24977778 3.64444444 1.59762963 3.81155556 1.69362963 3.06725926 3.34577778"></polygon>
                    <polygon id="路径" fill="#029245" points="2.73303704 3.15259259 3.47733333 1.50044444 3.64444444 1.59762963 2.90014815 3.24977778"></polygon>
                    <polygon id="路径" fill="#029345" points="2.56592593 3.05659259 3.31022222 1.40444444 3.47733333 1.50044444 2.73303704 3.15259259"></polygon>
                    <polygon id="路径" fill="#039445" points="2.39881481 2.96059259 3.14311111 1.30844444 3.31022222 1.40444444 2.56592593 3.05659259"></polygon>
                    <polygon id="路径" fill="#039545" points="2.2317037 2.86340741 2.976 1.21125926 3.14311111 1.30844444 2.39881481 2.96059259"></polygon>
                    <polygon id="路径" fill="#039644" points="2.06459259 2.76740741 2.81007407 1.11525926 2.976 1.21125926 2.2317037 2.86340741"></polygon>
                    <polygon id="路径" fill="#039744" points="1.89748148 2.67140741 2.64296296 1.01925926 2.81007407 1.11525926 2.06459259 2.76740741"></polygon>
                    <polygon id="路径" fill="#049944" points="1.73155556 2.57422222 2.47585185 0.922074074 2.64296296 1.01925926 1.89748148 2.67140741"></polygon>
                    <polygon id="路径" fill="#049A44" points="1.56444444 2.47822222 2.30874074 0.826074074 2.47585185 0.922074074 1.73155556 2.57422222"></polygon>
                    <polygon id="路径" fill="#049B44" points="1.39733333 2.38222222 2.14162963 0.730074074 2.30874074 0.826074074 1.56444444 2.47822222"></polygon>
                    <polygon id="路径" fill="#049C43" points="1.23022222 2.28503704 1.97451852 0.632888889 2.14162963 0.730074074 1.39733333 2.38222222"></polygon>
                    <polygon id="路径" fill="#049D43" points="1.06311111 2.18903704 1.80740741 0.536888889 1.97451852 0.632888889 1.23022222 2.28503704"></polygon>
                    <polygon id="路径" fill="#059E43" points="0.896 2.09303704 1.6402963 0.440888889 1.80740741 0.536888889 1.06311111 2.18903704"></polygon>
                    <polygon id="路径" fill="#059F43" points="0.728888889 1.99585185 1.47437037 0.344888889 1.6402963 0.440888889 0.896 2.09303704"></polygon>
                    <polygon id="路径" fill="#05A043" points="0.562962963 1.89985185 1.30725926 0.247703704 1.47437037 0.344888889 0.728888889 1.99585185"></polygon>
                    <polygon id="路径" fill="#05A142" points="0.395851852 1.80385185 1.14014815 0.151703704 1.30725926 0.247703704 0.562962963 1.89985185"></polygon>
                    <polygon id="路径" fill="#06A242" points="0.228740741 1.70666667 0.973037037 0.0557037037 1.14014815 0.151703704 0.395851852 1.80385185"></polygon>
                    <polygon id="路径" fill="#06A342" points="0.0616296296 1.61066667 0.335407407 1.00266667 0.905481481 0.0154074074 0.973037037 0.0557037037 0.228740741 1.70666667"></polygon>
                    <polygon id="路径" fill="#06A442" points="0.335407407 1.00266667 0.0616296296 1.61066667 0.00355555556 1.57748148"></polygon>
                </g>
                <path d="M38.0657778,16.2856296 L24.7585185,23.968 L24.0154074,22.6808889 C23.8917493,22.4672536 23.8607971,22.2123536 23.9297326,21.9753319 C23.9986681,21.7383102 24.161499,21.5397701 24.3804444,21.4257778 L36.4100741,15.1502222 C36.8410997,14.9262703 37.3720601,15.0833592 37.6118519,15.5057778 L38.0657778,16.2856296 Z" id="路径" fill="url(#linearGradient-22)" fill-rule="nonzero"></path>
                <path d="M26.7496296,25.5395556 C26.540977,25.6710738 26.2877036,25.7117856 26.0483456,25.6522816 C25.8089877,25.5927777 25.6042609,25.4382079 25.4814815,25.2242963 L24.7561481,23.968 L38.0634074,16.2856296 L38.5374815,17.1152593 C38.7811748,17.5372692 38.6476935,18.0764294 38.2352593,18.336 L26.7496296,25.5395556 Z" id="路径" fill="url(#linearGradient-23)" fill-rule="nonzero"></path>
                <g id="编组" transform="translate(23.466667, 21.096296)" fill-rule="nonzero">
                    <polygon id="路径" fill="#008947" points="4.12918519 0.175407407 4.128 0.174222222 4.128 0.173037037"></polygon>
                    <polygon id="路径" fill="#008A47" points="5.01925926 1.74103704 3.96088889 0.270222222 4.128 0.174222222 4.12918519 0.175407407 5.02874074 1.73511111"></polygon>
                    <polygon id="路径" fill="#008B47" points="4.85214815 1.83703704 3.79377778 0.366222222 3.96088889 0.270222222 5.01925926 1.74103704"></polygon>
                    <polygon id="路径" fill="#018C46" points="4.68503704 1.93303704 3.62666667 0.463407407 3.79377778 0.366222222 4.85214815 1.83703704"></polygon>
                    <polygon id="路径" fill="#018D46" points="4.51792593 2.03022222 3.45955556 0.559407407 3.62666667 0.463407407 4.68503704 1.93303704"></polygon>
                    <polygon id="路径" fill="#018E46" points="4.35081481 2.12622222 3.29244444 0.655407407 3.45955556 0.559407407 4.51792593 2.03022222"></polygon>
                    <polygon id="路径" fill="#018F46" points="4.1837037 2.22222222 3.12533333 0.751407407 3.29244444 0.655407407 4.35081481 2.12622222"></polygon>
                    <polygon id="路径" fill="#029046" points="4.01659259 2.31940741 2.95940741 0.848592593 3.12533333 0.751407407 4.1837037 2.22222222"></polygon>
                    <polygon id="路径" fill="#029145" points="3.85066667 2.41540741 2.7922963 0.944592593 2.95940741 0.848592593 4.01659259 2.31940741"></polygon>
                    <polygon id="路径" fill="#029245" points="3.68355556 2.51140741 2.62518519 1.04059259 2.7922963 0.944592593 3.85066667 2.41540741"></polygon>
                    <polygon id="路径" fill="#029345" points="3.51644444 2.60859259 2.45807407 1.13777778 2.62518519 1.04059259 3.68355556 2.51140741"></polygon>
                    <polygon id="路径" fill="#039445" points="3.34933333 2.70459259 2.29096296 1.23377778 2.45807407 1.13777778 3.51644444 2.60859259"></polygon>
                    <polygon id="路径" fill="#039545" points="3.18222222 2.80059259 2.12385185 1.32977778 2.29096296 1.23377778 3.34933333 2.70459259"></polygon>
                    <polygon id="路径" fill="#039644" points="3.01511111 2.89777778 1.95674074 1.42696296 2.12385185 1.32977778 3.18222222 2.80059259"></polygon>
                    <polygon id="路径" fill="#039744" points="2.848 2.99377778 1.78962963 1.52296296 1.95674074 1.42696296 3.01511111 2.89777778"></polygon>
                    <polygon id="路径" fill="#049944" points="2.68207407 3.08977778 1.62251852 1.61896296 1.78962963 1.52296296 2.848 2.99377778"></polygon>
                    <polygon id="路径" fill="#049A44" points="2.51496296 3.18696296 1.45659259 1.71614815 1.62251852 1.61896296 2.68207407 3.08977778"></polygon>
                    <polygon id="路径" fill="#049B44" points="2.34785185 3.28296296 1.28948148 1.81214815 1.45659259 1.71614815 2.51496296 3.18696296"></polygon>
                    <polygon id="路径" fill="#049C43" points="2.18074074 3.37896296 1.12237037 1.90814815 1.28948148 1.81214815 2.34785185 3.28296296"></polygon>
                    <polygon id="路径" fill="#049D43" points="2.01362963 3.47614815 0.955259259 2.00533333 1.12237037 1.90814815 2.18074074 3.37896296"></polygon>
                    <polygon id="路径" fill="#059E43" points="1.84651852 3.57214815 0.788148148 2.10133333 0.955259259 2.00533333 2.01362963 3.47614815"></polygon>
                    <polygon id="路径" fill="#059F43" points="1.67940741 3.66814815 0.621037037 2.19733333 0.788148148 2.10133333 1.84651852 3.57214815"></polygon>
                    <polygon id="路径" fill="#05A043" points="1.5122963 3.76533333 0.455111111 2.29451852 0.621037037 2.19733333 1.67940741 3.66814815"></polygon>
                    <polygon id="路径" fill="#05A142" points="1.34637037 3.86133333 0.288 2.39051852 0.455111111 2.29451852 1.5122963 3.76533333"></polygon>
                    <polygon id="路径" fill="#06A242" points="1.17925926 3.95733333 0.120888889 2.48651852 0.288 2.39051852 1.34637037 3.86133333"></polygon>
                    <polygon id="路径" fill="#06A342" points="1.01214815 4.05451852 0.622222222 3.51288889 0.0533333333 2.52562963 0.120888889 2.48651852 1.17925926 3.95733333"></polygon>
                    <polygon id="路径" fill="#06A442" points="0.622222222 3.51288889 1.01214815 4.05451852 0.954074074 4.0877037"></polygon>
                </g>
                <rect id="矩形" fill="url(#linearGradient-24)" fill-rule="nonzero" x="23.693037" y="6.67851852" width="1" height="35.6065185"></rect>
                <circle id="椭圆形" fill="url(#linearGradient-25)" fill-rule="nonzero" cx="24.0568889" cy="24.4693333" r="1.67348148"></circle>
                <path d="M23.9632593,28.7822222 C21.5813165,28.7822222 19.6503704,26.8512761 19.6503704,24.4693333 C19.6503704,22.0873906 21.5813165,20.1564444 23.9632593,20.1564444 C26.345202,20.1564444 28.2761481,22.0873906 28.2761481,24.4693333 C28.2735354,26.850193 26.3441189,28.7796095 23.9632593,28.7822222 L23.9632593,28.7822222 Z M23.9632593,20.9078519 C22.5221873,20.9078519 21.2230348,21.7759961 20.6716712,23.1074189 C20.1203076,24.4388417 20.4253315,25.9713011 21.4444928,26.9901233 C22.4636541,28.0089456 23.9962149,28.3134596 25.3274542,27.761653 C26.6586935,27.2098465 27.5264053,25.9104052 27.5259259,24.4693333 C27.523313,22.5030021 25.9295912,20.9098106 23.9632593,20.9078519 L23.9632593,20.9078519 Z" id="形状" fill="url(#linearGradient-25)" fill-rule="nonzero"></path>
                <circle id="椭圆形" fill="url(#linearGradient-26)" fill-rule="nonzero" opacity="0.26" cx="23.9976296" cy="24.4527407" r="16.6897778"></circle>
                <circle id="椭圆形" fill="url(#linearGradient-27)" fill-rule="nonzero" opacity="0.33" cx="24.0995556" cy="24.3508148" r="14.6085926"></circle>
                <circle id="椭圆形" fill="url(#linearGradient-28)" fill-rule="nonzero" opacity="0.3" cx="24.0675556" cy="24.4515556" r="12.8237037"></circle>
            </g>
        </g>
    </g>
</svg>