<?xml version="1.0" encoding="UTF-8"?>
<svg width="16px" height="16px" viewBox="0 0 16 16" version="1.1" xmlns="http://www.w3.org/2000/svg" xmlns:xlink="http://www.w3.org/1999/xlink">
    <!-- Generator: Sketch 54.1 (76490) - https://sketchapp.com -->
    <title>icon/16px/传感器/雨量选中</title>
    <desc>Created with Sketch.</desc>
    <g id="icon/16px/传感器/雨量选中" stroke="none" stroke-width="1" fill="none" fill-rule="evenodd">
        <g id="雨量计" fill-rule="nonzero">
            <g id="编组">
                <rect id="矩形" fill="#000000" opacity="0" x="0" y="0" width="16" height="16"></rect>
                <path d="M11.3333333,2 L11.3333333,4 L13.3333333,4 L13.3333333,5.33333333 L11.3333333,5.33333333 L11.3333333,6.66666667 L13.3333333,6.66666667 L13.3333333,8 L11.3333333,8 L11.3333333,9.33333333 L13.3333333,9.33333333 L13.3333333,10.6666667 L11.3333333,10.6666667 L11.3333333,12.4266667 L11.378,12.3753333 C11.8246667,11.8766667 12.1653333,11.6666667 12.7906667,11.6666667 C13.0693333,11.6666667 13.3453333,11.7233333 13.6173333,11.8266667 C14.048,12.016 14.62,12.4373333 15.3333333,13.09 L14.3806667,13.862 C14.2102539,13.6735407 14.0240182,13.5000181 13.824,13.3433333 C13.44,13.0446667 13.0713333,12.8726667 12.7906667,12.8726667 C12.5986667,12.8726667 12.512,12.9326667 12.2333333,13.2593333 C11.9133333,13.6326667 11.656,13.866 11.334,13.984 L11.3333333,14 L11.2846667,14.0013333 C11.1206667,14.0546667 10.9386667,14.0793333 10.7233333,14.0793333 C10.508,14.0793333 10.326,14.054 10.162,14.0013333 L10,14 L10,13.9366667 C9.72866667,13.808 9.496,13.588 9.21333333,13.2593333 C8.93466666,12.9326667 8.84866666,12.8726667 8.65666667,12.8726667 C8.46466667,12.8726667 8.37866667,12.9326667 8.1,13.2593333 C7.604,13.838 7.25933333,14.0793333 6.59,14.0793333 C5.92066667,14.0793333 5.57666667,13.838 5.08066667,13.2593333 C4.80133334,12.9326667 4.714,12.8726667 4.52266667,12.8726667 C4.22010574,12.8747338 3.92574107,12.9712239 3.68066667,13.1486667 C3.52866667,13.2553333 3.42666667,13.3573333 3.38733333,13.4086667 L3.32066667,13.4826667 C3.14666667,13.6446667 2.99866667,13.7933333 2.91266667,13.8846667 L2,13.068 C2.13933333,12.9226667 2.28266667,12.7813333 2.42933333,12.6426667 C2.542,12.5053333 2.718,12.336 2.95866667,12.1686667 C3.41511241,11.8427647 3.96181513,11.6672885 4.52266667,11.6666667 C5.19266667,11.6666667 5.53666667,11.908 6.03266667,12.4866667 C6.312,12.8126667 6.39866667,12.8733333 6.59,12.8733333 C6.782,12.8733333 6.868,12.8126667 7.14666667,12.4866667 C7.64266667,11.908 7.98666667,11.6666667 8.65666667,11.6666667 C9.24933334,11.6666667 9.58666667,11.8553333 10.0006667,12.3 L10,2 L11.3333333,2 Z M6.66666667,4 C8.33333334,5.85733333 9.16666667,7.24666667 9.16666667,8.16666667 C9.16666667,9.54737855 8.04737855,10.6666667 6.66666667,10.6666667 C5.2859548,10.6666667 4.16666667,9.54737855 4.16666667,8.16666667 C4.16666667,7.24666667 5,5.85733333 6.66666667,4 Z M7.41666667,6.66666667 C6.91666667,7.224 6.66666667,7.64 6.66666667,7.91666667 C6.66666667,8.33088023 7.00245311,8.66666667 7.41666667,8.66666667 C7.83088023,8.66666667 8.16666667,8.33088023 8.16666667,7.91666667 C8.16666667,7.64066667 7.91666667,7.22333334 7.41666667,6.66666667 L7.41666667,6.66666667 Z M4,2 C4.88866667,2.92866667 5.33333333,3.62333333 5.33333333,4.08333333 C5.33333333,4.774 4.73666667,5.33333333 4,5.33333333 C3.26333333,5.33333333 2.66666667,4.77333333 2.66666667,4.08333333 C2.66666667,3.62333333 3.11133334,2.92866666 4,2 Z M4.4,3.33333333 C4.13333333,3.612 4,3.82 4,3.95866667 C4,4.16533334 4.17933333,4.33333334 4.4,4.33333333 C4.62066667,4.33333333 4.8,4.16533333 4.8,3.958 C4.8,3.82 4.66666667,3.61133333 4.4,3.33333333 Z" id="形状" fill="#FFFFFF"></path>
            </g>
        </g>
    </g>
</svg>