<?xml version="1.0" encoding="UTF-8"?>
<svg width="28px" height="28px" viewBox="0 0 28 28" version="1.1" xmlns="http://www.w3.org/2000/svg" xmlns:xlink="http://www.w3.org/1999/xlink">
    <!-- Generator: Sketch 54.1 (76490) - https://sketchapp.com -->
    <title>icon/农场/设备点位</title>
    <desc>Created with Sketch.</desc>
    <g id="icon/农场/设备点位" stroke="none" stroke-width="1" fill="none" fill-rule="evenodd">
        <g id="地址" fill="#000000" fill-rule="nonzero">
            <g id="编组">
                <rect id="矩形" opacity="0" x="0" y="0" width="28" height="28"></rect>
                <path d="M13.9125,15.7691406 C15.8074219,15.7691406 17.3414062,14.2324219 17.3414062,12.3402344 C17.3414062,10.4480469 15.8046875,8.91132813 13.9125,8.91132813 C12.0203125,8.91132813 10.4835937,10.4453125 10.4835937,12.3402344 C10.4835937,14.2351563 12.0175781,15.7691406 13.9125,15.7691406 L13.9125,15.7691406 Z M13.9125,26.0558594 C7.0546875,20.6992188 3.62304688,16.1273437 3.62304688,12.3402344 C3.62304688,6.65820312 8.23046875,2.05078125 13.9125,2.05078125 C19.5945312,2.05078125 24.2019531,6.65820312 24.2019531,12.3402344 C24.2019531,16.1273437 20.7703125,20.6992188 13.9125,26.0558594 Z" id="形状"></path>
            </g>
        </g>
    </g>
</svg>