<?xml version="1.0" encoding="UTF-8"?>
<svg width="28px" height="28px" viewBox="0 0 28 28" version="1.1" xmlns="http://www.w3.org/2000/svg" xmlns:xlink="http://www.w3.org/1999/xlink">
    <!-- Generator: Sketch 54.1 (76490) - https://sketchapp.com -->
    <title>icon/农场/农场范围/白</title>
    <desc>Created with Sketch.</desc>
    <g id="icon/农场/农场范围/白" stroke="none" stroke-width="1" fill="none" fill-rule="evenodd">
        <g id="区域" fill-rule="nonzero">
            <g id="编组">
                <rect id="矩形" fill="#000000" opacity="0" x="0" y="0" width="28" height="28"></rect>
                <path d="M25.375,12.6492188 L25.375,6.671875 L26.3785156,6.671875 C26.8679687,6.671875 27.2617188,6.278125 27.2617188,5.78867187 L27.2617188,1.89492187 C27.2617188,1.40546875 26.8679687,1.01171875 26.3785156,1.01171875 L22.4847656,1.01171875 C21.9953125,1.01171875 21.6015625,1.40546875 21.6015625,1.89492187 L21.6015625,2.8984375 L6.5078125,2.8984375 L6.5078125,1.89492187 C6.5078125,1.40546875 6.1140625,1.01171875 5.62460937,1.01171875 L1.73085937,1.01171875 C1.24140625,1.01171875 0.84765625,1.40546875 0.84765625,1.89492187 L0.84765625,5.7859375 C0.84765625,6.27539063 1.24140625,6.66914063 1.73085937,6.66914063 L2.734375,6.66914063 L2.734375,21.7628906 L1.73085937,21.7628906 C1.24140625,21.765625 0.84765625,22.159375 0.84765625,22.6488281 L0.84765625,26.5398437 C0.84765625,27.0292969 1.24140625,27.4230469 1.73085937,27.4230469 L5.621875,27.4230469 C6.11132813,27.4230469 6.50507813,27.0292969 6.50507813,26.5398437 L6.50507813,25.5390625 L21.5988281,25.5390625 L21.5988281,26.5425781 C21.5988281,27.0320312 21.9925781,27.4257812 22.4820313,27.4257812 L26.3730469,27.4257812 C26.8625,27.4257812 27.25625,27.0320312 27.25625,26.5425781 L27.25625,22.6488281 C27.25625,22.159375 26.8625,21.765625 26.3730469,21.765625 L25.375,21.765625 L25.375,12.6492188 Z M22.8101562,2.2203125 L26.053125,2.2203125 L26.053125,5.46328125 L22.8101562,5.46328125 L22.8101562,2.2203125 Z M19.0859375,4.78515625 L4.62109375,19.25 L4.62109375,14.8476562 L14.6835938,4.78515625 L19.0859375,4.78515625 Z M2.05625,5.46328125 L2.05625,2.2203125 L5.29921875,2.2203125 L5.29921875,5.46328125 L2.05625,5.46328125 Z M5.62460937,6.671875 C6.1140625,6.671875 6.5078125,6.278125 6.5078125,5.78867187 L6.5078125,4.78515625 L12.0121094,4.78515625 L4.62109375,12.1789062 L4.62109375,6.671875 L5.62460937,6.671875 Z M5.29921875,26.2171875 L2.05625,26.2171875 L2.05625,22.9742187 L5.29921875,22.9742187 L5.29921875,26.2171875 L5.29921875,26.2171875 Z M6.5078125,23.6523438 L6.5078125,22.6488281 C6.5078125,22.159375 6.1140625,21.765625 5.62460938,21.765625 L4.7796875,21.765625 L21.6015625,4.94101562 L21.6015625,5.7859375 C21.6015625,6.27539062 21.9953125,6.66914062 22.4847656,6.66914062 L23.4882812,6.66914062 L23.4882812,7.1859375 L7.02460938,23.6523438 L6.5078125,23.6523438 Z M9.690625,23.6523437 L23.4882812,9.8546875 L23.4882812,14.3007812 L14.1367187,23.6523437 L9.690625,23.6523437 Z M26.053125,22.9742187 L26.053125,26.2171875 L22.8101562,26.2171875 L22.8101562,22.9742187 L26.053125,22.9742187 L26.053125,22.9742187 Z M22.4847656,21.765625 C21.9953125,21.765625 21.6015625,22.159375 21.6015625,22.6488281 L21.6015625,23.6523437 L16.8738281,23.6523437 L23.4882813,17.0378906 L23.4882813,21.765625 L22.4847656,21.765625 Z" id="形状" fill="#FFFFFF"></path>
            </g>
        </g>
    </g>
</svg>