<?xml version="1.0" encoding="UTF-8"?>
<svg width="28px" height="28px" viewBox="0 0 28 28" version="1.1" xmlns="http://www.w3.org/2000/svg" xmlns:xlink="http://www.w3.org/1999/xlink">
    <!-- Generator: Sketch 54.1 (76490) - https://sketchapp.com -->
    <title>icon/农场/区域规划/白</title>
    <desc>Created with Sketch.</desc>
    <g id="icon/农场/区域规划/白" stroke="none" stroke-width="1" fill="none" fill-rule="evenodd">
        <g id="区域" fill-rule="nonzero">
            <g id="编组">
                <rect id="矩形" fill="#000000" opacity="0" x="0" y="0" width="27.9726829" height="28"></rect>
                <path d="M22.1022439,28 L5.59453659,28 C2.50497561,27.9972656 0.00273170732,25.4925781 0,22.4 L0,20.890625 L16.8382439,16.165625 L22.1022439,28 Z M24.8995122,27.4011719 L17.3053659,10.3304688 L27.9727016,7.3390625 L27.9726829,22.4027344 C27.9781463,24.5191406 26.787122,26.4550781 24.8967805,27.4011719 L24.8995122,27.4011719 Z M0,17.98125 L0,5.60273438 C0.00273170732,2.51289063 2.50497561,0.008203125 5.59453659,0.00546875 L9.65112195,0.00546875 L15.6909268,13.584375 L0,17.98125 Z M16.1553171,7.74648438 L12.7106341,0 L22.3781463,0 C25.0306341,0 27.3170732,1.86210937 27.8579512,4.45976563 L16.1553171,7.74375 L16.1553171,7.74648438 Z" id="形状" fill="#FFFFFF"></path>
            </g>
        </g>
    </g>
</svg>