<?xml version="1.0" encoding="UTF-8"?>
<svg width="48px" height="48px" viewBox="0 0 48 48" version="1.1" xmlns="http://www.w3.org/2000/svg" xmlns:xlink="http://www.w3.org/1999/xlink">
    <!-- Generator: Sketch 54.1 (76490) - https://sketchapp.com -->
    <title>icon/48/湿帘</title>
    <desc>Created with Sketch.</desc>
    <defs>
        <linearGradient x1="0%" y1="49.9976389%" x2="100%" y2="49.9976389%" id="linearGradient-1">
            <stop stop-color="#0E4077" offset="1%"></stop>
            <stop stop-color="#066656" offset="100%"></stop>
        </linearGradient>
        <linearGradient x1="-0.0006466005%" y1="50.0041618%" x2="99.9506957%" y2="50.0041618%" id="linearGradient-2">
            <stop stop-color="#17DD95" offset="0%"></stop>
            <stop stop-color="#64EDBC" offset="98%"></stop>
        </linearGradient>
        <linearGradient x1="-0.000834666658%" y1="49.9979194%" x2="100.134747%" y2="49.9979194%" id="linearGradient-3">
            <stop stop-color="#17DD95" offset="0%"></stop>
            <stop stop-color="#64EDBC" offset="98%"></stop>
        </linearGradient>
        <linearGradient x1="-0.12616734%" y1="50.0041618%" x2="99.884999%" y2="50.0041618%" id="linearGradient-4">
            <stop stop-color="#17DD95" offset="0%"></stop>
            <stop stop-color="#64EDBC" offset="98%"></stop>
        </linearGradient>
        <linearGradient x1="-0.000648729239%" y1="50.0041618%" x2="100.279753%" y2="50.0041618%" id="linearGradient-5">
            <stop stop-color="#17DD95" offset="0%"></stop>
            <stop stop-color="#64EDBC" offset="98%"></stop>
        </linearGradient>
        <linearGradient x1="0.00516369676%" y1="50.0041618%" x2="99.8850745%" y2="50.0041618%" id="linearGradient-6">
            <stop stop-color="#17DD95" offset="0%"></stop>
            <stop stop-color="#64EDBC" offset="98%"></stop>
        </linearGradient>
        <linearGradient x1="0.00516162327%" y1="50.0041618%" x2="99.9506986%" y2="50.0041618%" id="linearGradient-7">
            <stop stop-color="#17DD95" offset="0%"></stop>
            <stop stop-color="#64EDBC" offset="98%"></stop>
        </linearGradient>
        <linearGradient x1="-0.000832040403%" y1="49.9979194%" x2="99.8196762%" y2="49.9979194%" id="linearGradient-8">
            <stop stop-color="#17DD95" offset="0%"></stop>
            <stop stop-color="#64EDBC" offset="98%"></stop>
        </linearGradient>
        <linearGradient x1="0.00515692838%" y1="49.9979194%" x2="99.819687%" y2="49.9979194%" id="linearGradient-9">
            <stop stop-color="#17DD95" offset="0%"></stop>
            <stop stop-color="#64EDBC" offset="98%"></stop>
        </linearGradient>
        <linearGradient x1="-0.000646515935%" y1="50.0041618%" x2="99.9376237%" y2="50.0041618%" id="linearGradient-10">
            <stop stop-color="#17DD95" offset="0%"></stop>
            <stop stop-color="#64EDBC" offset="98%"></stop>
        </linearGradient>
        <linearGradient x1="-0.000835765671%" y1="50.0041618%" x2="100.266596%" y2="50.0041618%" id="linearGradient-11">
            <stop stop-color="#17DD95" offset="0%"></stop>
            <stop stop-color="#64EDBC" offset="98%"></stop>
        </linearGradient>
        <linearGradient x1="0.00516708761%" y1="50.0041618%" x2="100.016333%" y2="50.0041618%" id="linearGradient-12">
            <stop stop-color="#17DD95" offset="0%"></stop>
            <stop stop-color="#64EDBC" offset="98%"></stop>
        </linearGradient>
        <linearGradient x1="-0.000834227481%" y1="49.9979194%" x2="100.082059%" y2="49.9979194%" id="linearGradient-13">
            <stop stop-color="#17DD95" offset="0%"></stop>
            <stop stop-color="#64EDBC" offset="98%"></stop>
        </linearGradient>
        <linearGradient x1="0.136411937%" y1="50.0041618%" x2="100.081947%" y2="50.0041618%" id="linearGradient-14">
            <stop stop-color="#17DD95" offset="0%"></stop>
            <stop stop-color="#64EDBC" offset="98%"></stop>
        </linearGradient>
        <linearGradient x1="-0.000835875351%" y1="50.0041618%" x2="100.279754%" y2="50.0041618%" id="linearGradient-15">
            <stop stop-color="#17DD95" offset="0%"></stop>
            <stop stop-color="#64EDBC" offset="98%"></stop>
        </linearGradient>
        <linearGradient x1="-0.263310914%" y1="50.0041618%" x2="99.6751457%" y2="50.0041618%" id="linearGradient-16">
            <stop stop-color="#17DD95" offset="0%"></stop>
            <stop stop-color="#64EDBC" offset="98%"></stop>
        </linearGradient>
        <linearGradient x1="-0.0606994241%" y1="50.0041618%" x2="100.279921%" y2="50.0041618%" id="linearGradient-17">
            <stop stop-color="#17DD95" offset="0%"></stop>
            <stop stop-color="#64EDBC" offset="98%"></stop>
        </linearGradient>
        <linearGradient x1="66.8447951%" y1="49.9074509%" x2="33.7119442%" y2="50.0897864%" id="linearGradient-18">
            <stop stop-color="#0D407A" offset="4%"></stop>
            <stop stop-color="#3DC68C" stop-opacity="0" offset="51%"></stop>
            <stop stop-color="#0F5B8B" stop-opacity="0.88" offset="100%"></stop>
        </linearGradient>
        <linearGradient x1="0%" y1="50%" x2="99.7237569%" y2="50%" id="linearGradient-19">
            <stop stop-color="#4FF7B7" offset="1%"></stop>
            <stop stop-color="#DCFFF8" offset="100%"></stop>
        </linearGradient>
        <linearGradient x1="50.1463588%" y1="102.599388%" x2="49.8536412%" y2="8.56269113%" id="linearGradient-20">
            <stop stop-color="#4FF7B7" offset="1%"></stop>
            <stop stop-color="#DCFFF8" offset="100%"></stop>
        </linearGradient>
        <linearGradient x1="50%" y1="102.755906%" x2="49.8108996%" y2="8.46456693%" id="linearGradient-21">
            <stop stop-color="#4FF7B7" offset="1%"></stop>
            <stop stop-color="#DCFFF8" offset="100%"></stop>
        </linearGradient>
        <linearGradient x1="50.1037743%" y1="102.597403%" x2="49.8962257%" y2="8.44155844%" id="linearGradient-22">
            <stop stop-color="#4FF7B7" offset="1%"></stop>
            <stop stop-color="#DCFFF8" offset="100%"></stop>
        </linearGradient>
        <linearGradient x1="50.1965198%" y1="102.595628%" x2="49.9344934%" y2="8.46994536%" id="linearGradient-23">
            <stop stop-color="#4FF7B7" offset="1%"></stop>
            <stop stop-color="#DCFFF8" offset="100%"></stop>
        </linearGradient>
        <linearGradient x1="50.2075486%" y1="102.597403%" x2="49.8962257%" y2="8.44155844%" id="linearGradient-24">
            <stop stop-color="#4FF7B7" offset="1%"></stop>
            <stop stop-color="#DCFFF8" offset="100%"></stop>
        </linearGradient>
        <linearGradient x1="50.1631265%" y1="102.55102%" x2="49.8368735%" y2="8.33333333%" id="linearGradient-25">
            <stop stop-color="#4FF7B7" offset="1%"></stop>
            <stop stop-color="#DCFFF8" offset="100%"></stop>
        </linearGradient>
        <linearGradient x1="8.78168584e-07%" y1="49.9764706%" x2="99.9999991%" y2="49.9764706%" id="linearGradient-26">
            <stop stop-color="#01BF6C" offset="0%"></stop>
            <stop stop-color="#8DF7B8" offset="100%"></stop>
        </linearGradient>
        <linearGradient x1="-0.00261499435%" y1="50%" x2="99.9999991%" y2="50%" id="linearGradient-27">
            <stop stop-color="#01BF6C" offset="0%"></stop>
            <stop stop-color="#8DF7B8" offset="100%"></stop>
        </linearGradient>
        <linearGradient x1="0%" y1="50%" x2="100%" y2="50%" id="linearGradient-28">
            <stop stop-color="#01BF6C" offset="0%"></stop>
            <stop stop-color="#8DF7B8" offset="100%"></stop>
        </linearGradient>
        <linearGradient x1="0%" y1="50.0525762%" x2="100%" y2="50.0525762%" id="linearGradient-29">
            <stop stop-color="#008947" offset="0%"></stop>
            <stop stop-color="#26C465" offset="100%"></stop>
        </linearGradient>
        <linearGradient x1="0.00261485762%" y1="49.9764595%" x2="100%" y2="49.9764595%" id="linearGradient-30">
            <stop stop-color="#01BF6C" offset="0%"></stop>
            <stop stop-color="#8DF7B8" offset="100%"></stop>
        </linearGradient>
        <linearGradient x1="0.0026161206%" y1="49.976481%" x2="100.002614%" y2="49.976481%" id="linearGradient-31">
            <stop stop-color="#01BF6C" offset="0%"></stop>
            <stop stop-color="#8DF7B8" offset="100%"></stop>
        </linearGradient>
        <linearGradient x1="0%" y1="49.9677835%" x2="100%" y2="49.9677835%" id="linearGradient-32">
            <stop stop-color="#01BF6C" offset="0%"></stop>
            <stop stop-color="#8DF7B8" offset="100%"></stop>
        </linearGradient>
    </defs>
    <g id="组件" stroke="none" stroke-width="1" fill="none" fill-rule="evenodd">
        <g id="icon/48/湿帘">
            <g id="资源-182">
                <rect id="矩形" x="0.823189812" y="0.72422074" width="47.1511947" height="47.1511947"></rect>
                <rect id="矩形" fill="url(#linearGradient-1)" fill-rule="nonzero" x="3.57336568" y="11.5945179" width="42.2027411" height="24.6572711"></rect>
                <path d="M4.63058824,11.5945179 C5.33850819,12.9742632 5.29309885,13.930188 5.12426925,14.5437962 C4.91934506,15.2947968 4.54209824,15.5008854 4.4966889,16.2705155 C4.43963614,17.2625349 5.0369436,17.4919102 5.12426925,18.4676289 C5.24070346,19.7111461 4.30922984,19.8473742 4.23471195,21.1106853 C4.13457853,22.7722013 5.68897514,23.2728684 5.43631292,24.7841844 C5.26748332,25.7843542 4.56072771,25.715658 4.38840509,26.7763736 C4.16834445,28.1456398 5.30357793,28.5694603 5.12194057,30.0074227 C4.98105518,31.1333414 4.23704063,31.2521043 4.36511825,32.1800849 C4.49319588,33.1080655 5.30823529,33.4212735 5.12194057,34.1594663 C5.00550637,34.6438326 4.46758035,35.2364827 4.46758035,35.2364827 L4.46758035,35.2364827 C4.25334142,36.1539842 4.12409945,37.2787386 4.70743481,37.6979018 C5.17317162,38.0309036 5.86362644,37.7607762 5.98821104,38.0052881 C6.07087932,38.1729533 5.87177683,38.5606792 4.4745664,39.5713281 L4.63058824,11.5945179 Z" id="路径" fill="url(#linearGradient-2)" fill-rule="nonzero"></path>
                <path d="M6.17101273,11.5945179 C6.87893269,12.9742632 6.83352335,13.930188 6.6658581,14.5437962 C6.45976956,15.2947968 6.08368708,15.5008854 6.0371134,16.2705155 C5.98006064,17.2625349 6.5773681,17.4919102 6.6658581,18.4676289 C6.7822923,19.7111461 5.85081868,19.8473742 5.77513645,21.1106853 C5.67500303,22.7722013 7.23056398,23.2728684 6.97673742,24.7841844 C6.80907216,25.7843542 6.10115221,25.715658 5.92882959,26.7763736 C5.71226198,28.1479685 6.84633111,28.5694603 6.6658581,30.0109157 C6.52380837,31.1368344 5.78095816,31.2555973 5.90787144,32.1835779 C6.03478472,33.1115585 6.85215282,33.4247665 6.6658581,34.1629594 C6.54942389,34.6473257 6.01149788,35.2399757 6.01149788,35.2399757 L6.01149788,35.2399757 C5.79725894,36.1574773 5.66219527,37.2822317 6.24436628,37.7013948 C6.71010309,38.0343966 7.40055791,37.7642693 7.52514251,38.0087811 C7.60781079,38.1764463 7.41453002,38.5641722 6.01149788,39.5748211 L6.17101273,11.5945179 Z" id="路径" fill="url(#linearGradient-3)" fill-rule="nonzero"></path>
                <path d="M7.71376592,11.5945179 C8.42285021,12.9742632 8.37627653,13.930188 8.20861128,14.5437962 C8.00368708,15.2947968 7.62644027,15.5008854 7.57986659,16.2705155 C7.52397817,17.2625349 8.12128563,17.4919102 8.20861128,18.4676289 C8.32504548,19.7111461 7.39357186,19.8473742 7.31905397,21.1106853 C7.21775622,22.7722013 8.77331716,23.2728684 8.5194906,24.7841844 C8.35182535,25.7843542 7.6439054,25.715658 7.47158278,26.7763736 C7.25152213,28.1456398 8.38559127,28.5694603 8.20511825,30.0074227 C8.06306853,31.1333414 7.32021831,31.2521043 7.44713159,32.1800849 C7.57404488,33.1080655 8.39141298,33.4212735 8.20511825,34.1594663 C8.08286234,34.6438326 7.55075804,35.2364827 7.55075804,35.2364827 L7.55075804,35.2364827 C7.3365191,36.1539842 7.20145543,37.2787386 7.79061249,37.6979018 C8.2563493,38.0309036 8.94680412,37.7607762 9.07138872,38.0052881 C9.154057,38.1729533 8.95495452,38.5606792 7.55774409,39.5713281 L7.71376592,11.5945179 Z" id="路径" fill="url(#linearGradient-4)" fill-rule="nonzero"></path>
                <path d="M9.25302608,11.5945179 C9.96094603,12.9742632 9.91553669,13.930188 9.7467071,14.5437962 C9.5417829,15.2947968 9.16453608,15.5008854 9.11912674,16.2705155 C9.06207398,17.2625349 9.65938144,17.4919102 9.7467071,18.4676289 C9.8631413,19.7111461 8.93166768,19.8473742 8.85714979,21.1106853 C8.75701637,22.7722013 10.311413,23.2728684 10.0587508,24.7841844 C9.89108551,25.7843542 9.18316555,25.715658 9.01084294,26.7763736 C8.79078229,28.1456398 9.92601577,28.5694603 9.74437841,30.0074227 C9.60349303,31.1333414 8.85947847,31.2521043 8.98755609,32.1800849 C9.11563372,33.1080655 9.93067314,33.4212735 9.74437841,34.1594663 C9.62794421,34.6438326 9.09118253,35.2364827 9.09118253,35.2364827 L9.09118253,35.2364827 C8.8769436,36.1539842 8.74187993,37.2787386 9.32405094,37.6979018 C9.78978775,38.0309036 10.4802426,37.7607762 10.6048272,38.0052881 C10.6874955,38.1729533 10.488393,38.5606792 9.09118253,39.5713281 L9.25302608,11.5945179 Z" id="路径" fill="url(#linearGradient-5)" fill-rule="nonzero"></path>
                <path d="M10.7934506,11.5945179 C11.5013705,12.9742632 11.4559612,13.930188 11.2882959,14.5437962 C11.0822074,15.2947968 10.7061249,15.5008854 10.6595512,16.2705155 C10.6024985,17.2625349 11.1998059,17.4919102 11.2882959,18.4676289 C11.4047301,19.7111461 10.4732565,19.8473742 10.3987386,21.1106853 C10.2974409,22.7722013 11.8530018,23.2728684 11.5991753,24.7841844 C11.43151,25.7843542 10.7235901,25.715658 10.5512674,26.7763736 C10.3323711,28.1456398 11.4664403,28.5694603 11.2859673,30.0074227 C11.1439175,31.1333414 10.4010673,31.2521043 10.5279806,32.1800849 C10.6548939,33.1080655 11.472262,33.4212735 11.2859673,34.1594663 C11.1637113,34.6438326 10.631607,35.2364827 10.631607,35.2364827 L10.631607,35.2364827 C10.4173681,36.1539842 10.2823044,37.2787386 10.8714615,37.6979018 C11.3371983,38.0309036 12.0276531,37.7607762 12.1522377,38.0052881 C12.234906,38.1729533 12.0358035,38.5606792 10.6385931,39.5713281 L10.7934506,11.5945179 Z" id="路径" fill="url(#linearGradient-6)" fill-rule="nonzero"></path>
                <path d="M12.3338751,11.5945179 C13.0429594,12.9742632 12.9963857,13.930188 12.8287204,14.5437962 C12.6237962,15.2947968 12.2465494,15.5008854 12.1999757,16.2705155 C12.1440873,17.2625349 12.7413948,17.4919102 12.8287204,18.4676289 C12.9451546,19.7111461 12.013681,19.8473742 11.9391631,21.1106853 C11.8378654,22.7722013 13.3934263,23.2728684 13.1407641,24.7841844 C12.9719345,25.7843542 12.2651789,25.715658 12.0928563,26.7763736 C11.8727956,28.1456398 13.0080291,28.5694603 12.8263918,30.0074227 C12.6855064,31.1333414 11.9414918,31.2521043 12.0695694,32.1800849 C12.1976471,33.1080655 13.0126865,33.4212735 12.8263918,34.1594663 C12.7099576,34.6438326 12.1720315,35.2364827 12.1720315,35.2364827 L12.1720315,35.2364827 C11.9577926,36.1539842 11.8285506,37.2787386 12.411886,37.6979018 C12.8776228,38.0309036 13.5680776,37.7607762 13.6926622,38.0052881 C13.7753305,38.1729533 13.576228,38.5606792 12.1790176,39.5713281 L12.3338751,11.5945179 Z" id="路径" fill="url(#linearGradient-7)" fill-rule="nonzero"></path>
                <path d="M13.8754639,11.5945179 C14.5833839,12.9742632 14.5379745,13.930188 14.3703093,14.5437962 C14.1642207,15.2947968 13.7881383,15.5008854 13.7415646,16.2705155 C13.6845118,17.2625349 14.2818193,17.4919102 14.3703093,18.4676289 C14.4867435,19.7111461 13.5552699,19.8473742 13.4795876,21.1106853 C13.3794542,22.7722013 14.9350152,23.2728684 14.6811886,24.7841844 C14.5135233,25.7843542 13.8056034,25.715658 13.6332808,26.7763736 C13.4190418,28.1479685 14.5507823,28.5694603 14.3703093,30.0109157 C14.2282596,31.1368344 13.4854093,31.2555973 13.6123226,32.1835779 C13.7392359,33.1115585 14.556604,33.4247665 14.3703093,34.1629594 C14.2538751,34.6473257 13.7159491,35.2399757 13.7159491,35.2399757 L13.7159491,35.2399757 C13.5017101,36.1574773 13.3666465,37.2822317 13.9546392,37.7013948 C14.420376,38.0343966 15.1108308,37.7642693 15.2354154,38.0087811 C15.3180837,38.1764463 15.1189812,38.5641722 13.7217708,39.5748211 L13.8754639,11.5945179 Z" id="路径" fill="url(#linearGradient-8)" fill-rule="nonzero"></path>
                <path d="M15.4158884,11.5945179 C16.1249727,12.9742632 16.078399,13.930188 15.9107338,14.5437962 C15.7058096,15.2947968 15.3285628,15.5008854 15.2819891,16.2705155 C15.2261007,17.2625349 15.8234081,17.4919102 15.9107338,18.4676289 C16.027168,19.7111461 15.0956944,19.8473742 15.0211765,21.1106853 C14.9198787,22.7722013 16.4754397,23.2728684 16.2216131,24.7841844 C16.0539478,25.7843542 15.3460279,25.715658 15.1737053,26.7763736 C14.9571377,28.1479685 16.0970285,28.5694603 15.9107338,30.0109157 C15.7686841,31.1368344 15.0258338,31.2555973 15.1527471,32.1835779 C15.2796604,33.1115585 16.0970285,33.4247665 15.9107338,34.1629594 C15.7942996,34.6473257 15.2563736,35.2399757 15.2563736,35.2399757 L15.2563736,35.2399757 C15.0421346,36.1574773 14.9128927,37.2822317 15.496228,37.7013948 C15.9619648,38.0343966 16.6524196,37.7642693 16.7770042,38.0087811 C16.8596725,38.1764463 16.66057,38.5641722 15.2633596,39.5748211 L15.4158884,11.5945179 Z" id="路径" fill="url(#linearGradient-9)" fill-rule="nonzero"></path>
                <path d="M16.9574773,11.5945179 C17.6653972,12.9742632 17.6199879,13.930188 17.4511583,14.5437962 C17.2462341,15.2947968 16.8689873,15.5008854 16.8235779,16.2705155 C16.7665252,17.2625349 17.3638326,17.4919102 17.4511583,18.4676289 C17.5675925,19.7111461 16.6361189,19.8473742 16.561601,21.1106853 C16.4614676,22.7722013 18.0158642,23.2728684 17.7632019,24.7841844 C17.5943723,25.7843542 16.8876167,25.715658 16.7152941,26.7763736 C16.4952335,28.1456398 17.6304669,28.5694603 17.4488296,30.0074227 C17.3079442,31.1333414 16.5639297,31.2521043 16.6920073,32.1800849 C16.8200849,33.1080655 17.6351243,33.4212735 17.4488296,34.1594663 C17.3323954,34.6438326 16.7944694,35.2364827 16.7944694,35.2364827 L16.7944694,35.2364827 C16.5802304,36.1539842 16.4451668,37.2787386 17.0343238,37.6979018 C17.5000606,38.0309036 18.1905155,37.7607762 18.3151001,38.0052881 C18.3977683,38.1729533 18.2044876,38.5606792 16.8014554,39.5713281 L16.9574773,11.5945179 Z" id="路径" fill="url(#linearGradient-10)" fill-rule="nonzero"></path>
                <path d="M18.4979018,11.5945179 C19.2058217,12.9742632 19.1604124,13.930188 18.9927471,14.5437962 C18.7866586,15.2947968 18.4105761,15.5008854 18.3640024,16.2705155 C18.3069497,17.2625349 18.9042571,17.4919102 18.9927471,18.4676289 C19.1091813,19.7111461 18.1777077,19.8473742 18.1020255,21.1106853 C18.0018921,22.7722013 19.557453,23.2728684 19.3036264,24.7841844 C19.1359612,25.7843542 18.4280412,25.715658 18.2557186,26.7763736 C18.0368223,28.1456398 19.1708914,28.5694603 18.9904184,30.0074227 C18.8483687,31.1333414 18.1055185,31.2521043 18.2324318,32.1800849 C18.3593451,33.1080655 19.1767132,33.4212735 18.9904184,34.1594663 C18.8739842,34.6438326 18.3360582,35.2364827 18.3360582,35.2364827 L18.3360582,35.2364827 C18.1218193,36.1539842 17.9867556,37.2787386 18.5689266,37.6979018 C19.0346634,38.0309036 19.7251183,37.7607762 19.8497029,38.0052881 C19.9323711,38.1729533 19.7390904,38.5606792 18.3360582,39.5713281 L18.4979018,11.5945179 Z" id="路径" fill="url(#linearGradient-11)" fill-rule="nonzero"></path>
                <path d="M20.0383263,11.5945179 C20.7474106,12.9742632 20.7008369,13.930188 20.5331716,14.5437962 C20.3282474,15.2947968 19.9510006,15.5008854 19.9044269,16.2705155 C19.8485385,17.2625349 20.445846,17.4919102 20.5331716,18.4676289 C20.6496058,19.7111461 19.7181322,19.8473742 19.6436143,21.1106853 C19.5423166,22.7722013 21.0978775,23.2728684 20.8440509,24.7841844 C20.6763857,25.7843542 19.9684657,25.715658 19.7961431,26.7763736 C19.5760825,28.1456398 20.7101516,28.5694603 20.5296786,30.0074227 C20.3876289,31.1333414 19.6447787,31.2521043 19.7716919,32.1800849 C19.8986052,33.1080655 20.7159733,33.4212735 20.5296786,34.1594663 C20.4074227,34.6438326 19.8753184,35.2364827 19.8753184,35.2364827 L19.8753184,35.2364827 C19.6610794,36.1539842 19.5260158,37.2787386 20.1151728,37.6979018 C20.5809096,38.0309036 21.2713645,37.7607762 21.3959491,38.0052881 C21.4786173,38.1729533 21.2795149,38.5606792 19.8823044,39.5713281 L20.0383263,11.5945179 Z" id="路径" fill="url(#linearGradient-12)" fill-rule="nonzero"></path>
                <path d="M21.5799151,11.5945179 C22.2878351,12.9742632 22.2424257,13.930188 22.0735961,14.5437962 C21.8686719,15.2947968 21.4914251,15.5008854 21.4460158,16.2705155 C21.388963,17.2625349 21.9862705,17.4919102 22.0735961,18.4676289 C22.1900303,19.7111461 21.2585567,19.8473742 21.1840388,21.1106853 C21.0839054,22.7722013 22.638302,23.2728684 22.3856398,24.7841844 C22.2179745,25.7843542 21.5100546,25.715658 21.337732,26.7763736 C21.1176713,28.1456398 22.2529048,28.5694603 22.0712674,30.0074227 C21.930382,31.1333414 21.1863675,31.2521043 21.3144451,32.1800849 C21.4425227,33.1080655 22.2575622,33.4212735 22.0712674,34.1594663 C21.9548332,34.6438326 21.4180716,35.2364827 21.4180716,35.2364827 L21.4180716,35.2364827 C21.2038326,36.1539842 21.068769,37.2787386 21.65094,37.6979018 C22.1166768,38.0309036 22.8071316,37.7607762 22.9317162,38.0052881 C23.0143845,38.1729533 22.815282,38.5606792 21.4180716,39.5713281 L21.5799151,11.5945179 Z" id="路径" fill="url(#linearGradient-5)" fill-rule="nonzero"></path>
                <path d="M23.1203396,11.5945179 C23.8282596,12.9742632 23.7828502,13.930188 23.615185,14.5437962 C23.4090964,15.2947968 23.0330139,15.5008854 22.9864403,16.2705155 C22.9293875,17.2625349 23.526695,17.4919102 23.615185,18.4676289 C23.7316192,19.7111461 22.8001455,19.8473742 22.7256277,21.1106853 C22.6243299,22.7722013 24.1798908,23.2728684 23.9260643,24.7841844 C23.758399,25.7843542 23.0504791,25.715658 22.8781565,26.7763736 C22.6592602,28.1456398 23.7933293,28.5694603 23.6128563,30.0074227 C23.4708065,31.1333414 22.7279563,31.2521043 22.8548696,32.1800849 C22.9817829,33.1080655 23.799151,33.4212735 23.6128563,34.1594663 C23.4906004,34.6438326 22.9584961,35.2364827 22.9584961,35.2364827 L22.9584961,35.2364827 C22.7442571,36.1539842 22.6091935,37.2787386 23.1983505,37.6979018 C23.6640873,38.0309036 24.3545421,37.7607762 24.4791267,38.0052881 C24.561795,38.1729533 24.3626925,38.5606792 22.9654821,39.5713281 L23.1203396,11.5945179 Z" id="路径" fill="url(#linearGradient-6)" fill-rule="nonzero"></path>
                <path d="M24.6607641,11.5945179 C25.3698484,12.9742632 25.3244391,13.930188 25.1556095,14.5437962 C24.9506853,15.2947968 24.5734384,15.5008854 24.5280291,16.2705155 C24.4709763,17.2625349 25.0682838,17.4919102 25.1556095,18.4676289 C25.2720437,19.7111461 24.34057,19.8473742 24.2660522,21.1106853 C24.1647544,22.7722013 25.7203153,23.2728684 25.4676531,24.7841844 C25.2988235,25.7843542 24.5920679,25.715658 24.4197453,26.7763736 C24.1996847,28.1456398 25.3349181,28.5694603 25.1532808,30.0074227 C25.0123954,31.1333414 24.2683808,31.2521043 24.3964585,32.1800849 C24.5245361,33.1080655 25.3395755,33.4212735 25.1532808,34.1594663 C25.0368466,34.6438326 24.4989206,35.2364827 24.4989206,35.2364827 L24.4989206,35.2364827 C24.2846816,36.1539842 24.1554397,37.2787386 24.738775,37.6979018 C25.2045118,38.0309036 25.8949666,37.7607762 26.0195512,38.0052881 C26.1022195,38.1729533 25.903117,38.5606792 24.5059066,39.5713281 L24.6607641,11.5945179 Z" id="路径" fill="url(#linearGradient-7)" fill-rule="nonzero"></path>
                <path d="M26.2023529,11.5945179 C26.9102729,12.9742632 26.8648636,13.930188 26.6971983,14.5437962 C26.4911098,15.2947968 26.1150273,15.5008854 26.0684536,16.2705155 C26.0114008,17.2625349 26.6087083,17.4919102 26.6971983,18.4676289 C26.8136325,19.7111461 25.8821589,19.8473742 25.8064767,21.1106853 C25.7063432,22.7722013 27.2619042,23.2728684 27.0080776,24.7841844 C26.8404124,25.7843542 26.1324924,25.715658 25.9601698,26.7763736 C25.7424378,28.1479685 26.8776713,28.5694603 26.6925409,30.0109157 C26.5504912,31.1368344 25.807641,31.2555973 25.9345543,32.1835779 C26.0614676,33.1115585 26.8788357,33.4247665 26.6925409,34.1629594 C26.5761067,34.6473257 26.0381807,35.2399757 26.0381807,35.2399757 L26.0381807,35.2399757 C25.8239418,36.1574773 25.6888781,37.2822317 26.2768708,37.7013948 C26.7426076,38.0343966 27.4330625,37.7642693 27.5576471,38.0087811 C27.6403153,38.1764463 27.4412129,38.5641722 26.0440024,39.5748211 L26.2023529,11.5945179 Z" id="路径" fill="url(#linearGradient-13)" fill-rule="nonzero"></path>
                <path d="M27.7404488,11.5945179 C28.4495331,12.9742632 28.4029594,13.930188 28.2352941,14.5437962 C28.0303699,15.2947968 27.6531231,15.5008854 27.6065494,16.2705155 C27.550661,17.2625349 28.1479685,17.4919102 28.2352941,18.4676289 C28.3517283,19.7111461 27.4202547,19.8473742 27.3457368,21.1106853 C27.2444391,22.7722013 28.8,23.2728684 28.5461734,24.7841844 C28.3785082,25.7843542 27.6705882,25.715658 27.4982656,26.7763736 C27.2793693,28.1456398 28.4134384,28.5694603 28.2329654,30.0074227 C28.0909157,31.1333414 27.3480655,31.2521043 27.4749788,32.1800849 C27.6018921,33.1080655 28.4192602,33.4212735 28.2329654,34.1594663 C28.1165312,34.6438326 27.5786052,35.2364827 27.5786052,35.2364827 L27.5786052,35.2364827 C27.3643663,36.1539842 27.2351243,37.2787386 27.8184597,37.6979018 C28.2841965,38.0309036 28.9746513,37.7607762 29.0992359,38.0052881 C29.1819042,38.1729533 28.9828017,38.5606792 27.5855913,39.5713281 L27.7404488,11.5945179 Z" id="路径" fill="url(#linearGradient-14)" fill-rule="nonzero"></path>
                <path d="M29.2843663,11.5945179 C29.9922862,12.9742632 29.9468769,13.930188 29.7780473,14.5437962 C29.5731231,15.2947968 29.1958763,15.5008854 29.1504669,16.2705155 C29.0934142,17.2625349 29.6907216,17.4919102 29.7780473,18.4676289 C29.8944815,19.7111461 28.9630079,19.8473742 28.88849,21.1106853 C28.7883566,22.7722013 30.3427532,23.2728684 30.090091,24.7841844 C29.9224257,25.7843542 29.2145058,25.715658 29.0421831,26.7763736 C28.8221225,28.1456398 29.957356,28.5694603 29.7757186,30.0074227 C29.6348332,31.1333414 28.8908187,31.2521043 29.0188963,32.1800849 C29.1469739,33.1080655 29.9620133,33.4212735 29.7757186,34.1594663 C29.6592844,34.6438326 29.1225227,35.2364827 29.1213584,35.2364827 L29.1213584,35.2364827 C28.9071195,36.1539842 28.7720558,37.2787386 29.3612129,37.6979018 C29.8269497,38.0309036 30.5174045,37.7607762 30.6419891,38.0052881 C30.7246574,38.1729533 30.5313766,38.5606792 29.1283445,39.5713281 L29.2843663,11.5945179 Z" id="路径" fill="url(#linearGradient-10)" fill-rule="nonzero"></path>
                <path d="M30.8247908,11.5945179 C31.5327107,12.9742632 31.4873014,13.930188 31.3196361,14.5437962 C31.1135476,15.2947968 30.7374651,15.5008854 30.6908914,16.2705155 C30.6338387,17.2625349 31.2311461,17.4919102 31.3196361,18.4676289 C31.4360703,19.7111461 30.5045967,19.8473742 30.4289145,21.1106853 C30.3287811,22.7722013 31.884342,23.2728684 31.6305155,24.7841844 C31.4628502,25.7843542 30.7549303,25.715658 30.5826076,26.7763736 C30.3637113,28.1456398 31.4977805,28.5694603 31.3173075,30.0074227 C31.1752577,31.1333414 30.4324075,31.2521043 30.5593208,32.1800849 C30.6862341,33.1080655 31.5036022,33.4212735 31.3173075,34.1594663 C31.2008733,34.6438326 30.6629472,35.2364827 30.6629472,35.2364827 L30.6629472,35.2364827 C30.4487083,36.1539842 30.3136446,37.2787386 30.8958156,37.6979018 C31.3615525,38.0309036 32.0531716,37.7607762 32.1765919,38.0052881 C32.2592602,38.1729533 32.0601577,38.5606792 30.6629472,39.5713281 L30.8247908,11.5945179 Z" id="路径" fill="url(#linearGradient-15)" fill-rule="nonzero"></path>
                <path d="M32.3652153,11.5945179 C33.0742996,12.9742632 33.0277259,13.930188 32.8600606,14.5437962 C32.6551364,15.2947968 32.2778896,15.5008854 32.2313159,16.2705155 C32.1754275,17.2625349 32.772735,17.4919102 32.8600606,18.4676289 C32.9764948,19.7111461 32.0450212,19.8473742 31.9705033,21.1106853 C31.8692056,22.7722013 33.4247665,23.2728684 33.17094,24.7841844 C33.0032747,25.7843542 32.2953548,25.715658 32.1230321,26.7763736 C31.9029715,28.1456398 33.038205,28.5694603 32.8565676,30.0074227 C32.7145179,31.1333414 31.9716677,31.2521043 32.098581,32.1800849 C32.2254942,33.1080655 33.0428623,33.4212735 32.8565676,34.1594663 C32.7401334,34.6438326 32.2022074,35.2364827 32.2022074,35.2364827 L32.2022074,35.2364827 C31.9879685,36.1539842 31.8587265,37.2787386 32.4420619,37.6979018 C32.9077987,38.0309036 33.5982535,37.7607762 33.7228381,38.0052881 C33.8055064,38.1729533 33.6064039,38.5606792 32.2091935,39.5713281 L32.3652153,11.5945179 Z" id="路径" fill="url(#linearGradient-12)" fill-rule="nonzero"></path>
                <path d="M33.9114615,11.5945179 C34.6193814,12.9742632 34.5739721,13.930188 34.4051425,14.5437962 C34.2002183,15.2947968 33.8229715,15.5008854 33.7775622,16.2705155 C33.7205094,17.2625349 34.3178169,17.4919102 34.4051425,18.4676289 C34.5215767,19.7111461 33.5901031,19.8473742 33.5155852,21.1106853 C33.4154518,22.7722013 34.9710127,23.2728684 34.7171862,24.7841844 C34.5495209,25.7843542 33.841601,25.715658 33.6692784,26.7763736 C33.4492177,28.1456398 34.5844512,28.5694603 34.4028138,30.0074227 C34.2619284,31.1333414 33.5179139,31.2521043 33.6459915,32.1800849 C33.7740691,33.1080655 34.5891086,33.4212735 34.4028138,34.1594663 C34.2863796,34.6438326 33.749618,35.2364827 33.749618,35.2364827 L33.749618,35.2364827 C33.535379,36.1539842 33.4003153,37.2787386 33.9883081,37.6979018 C34.4540449,38.0309036 35.1444997,37.7607762 35.2690843,38.0052881 C35.3517526,38.1729533 35.1584718,38.5606792 33.7554397,39.5713281 L33.9114615,11.5945179 Z" id="路径" fill="url(#linearGradient-16)" fill-rule="nonzero"></path>
                <path d="M35.4472286,11.5945179 C36.1563129,12.9742632 36.1097392,13.930188 35.942074,14.5437962 C35.7359854,15.2947968 35.359903,15.5008854 35.3133293,16.2705155 C35.2562765,17.2625349 35.853584,17.4919102 35.942074,18.4676289 C36.0585082,19.7111461 35.1270346,19.8473742 35.0525167,21.1106853 C34.9512189,22.7722013 36.5067799,23.2728684 36.2529533,24.7841844 C36.0852881,25.7843542 35.3773681,25.715658 35.2050455,26.7763736 C34.9861492,28.1456398 36.1202183,28.5694603 35.9397453,30.0074227 C35.7976956,31.1333414 35.0548454,31.2521043 35.1817586,32.1800849 C35.3086719,33.1080655 36.12604,33.4212735 35.9397453,34.1594663 C35.8233111,34.6438326 35.2853851,35.2364827 35.2853851,35.2364827 L35.2853851,35.2364827 C35.0711461,36.1539842 34.9360825,37.2787386 35.5252395,37.6979018 C35.9909763,38.0309036 36.6814312,37.7607762 36.8060158,38.0052881 C36.8886841,38.1729533 36.6895816,38.5606792 35.2923711,39.5713281 L35.4472286,11.5945179 Z" id="路径" fill="url(#linearGradient-6)" fill-rule="nonzero"></path>
                <path d="M36.9876531,11.5945179 C37.6967374,12.9742632 37.6513281,13.930188 37.4824985,14.5437962 C37.2775743,15.2947968 36.9003275,15.5008854 36.8549181,16.2705155 C36.7978654,17.2625349 37.3951728,17.4919102 37.4824985,18.4676289 C37.5989327,19.7111461 36.6674591,19.8473742 36.5929412,21.1106853 C36.4916434,22.7722013 38.0472044,23.2728684 37.7945421,24.7841844 C37.6257126,25.7843542 36.9189569,25.715658 36.7466343,26.7763736 C36.5265737,28.1456398 37.6618072,28.5694603 37.4801698,30.0074227 C37.3392844,31.1333414 36.5952699,31.2521043 36.7233475,32.1800849 C36.8514251,33.1080655 37.6664645,33.4212735 37.4801698,34.1594663 C37.3579139,34.6438326 36.8258096,35.2364827 36.8258096,35.2364827 L36.8258096,35.2364827 C36.6115706,36.1539842 36.476507,37.2787386 37.065664,37.6979018 C37.5314008,38.0309036 38.2218557,37.7607762 38.3464403,38.0052881 C38.4291086,38.1729533 38.2300061,38.5606792 36.8327956,39.5713281 L36.9876531,11.5945179 Z" id="路径" fill="url(#linearGradient-7)" fill-rule="nonzero"></path>
                <path d="M38.529242,11.5945179 C39.2371619,12.9742632 39.1917526,13.930188 39.0240873,14.5437962 C38.8179988,15.2947968 38.4419163,15.5008854 38.3953426,16.2705155 C38.3382899,17.2625349 38.9355973,17.4919102 39.0240873,18.4676289 C39.1405215,19.7111461 38.2090479,19.8473742 38.1333657,21.1106853 C38.0332323,22.7722013 39.5887932,23.2728684 39.3349666,24.7841844 C39.1673014,25.7843542 38.4593814,25.715658 38.2870588,26.7763736 C38.0669982,28.1456398 39.2022317,28.5694603 39.0217586,30.0074227 C38.8797089,31.1333414 38.1368587,31.2521043 38.263772,32.1800849 C38.3906853,33.1080655 39.2080534,33.4212735 39.0217586,34.1594663 C38.8995027,34.6438326 38.3673984,35.2364827 38.3673984,35.2364827 L38.3673984,35.2364827 C38.1531595,36.1539842 38.0180958,37.2787386 38.6002668,37.6979018 C39.0660036,38.0309036 39.7564585,37.7607762 39.8810431,38.0052881 C39.9637113,38.1729533 39.7646089,38.5606792 38.3673984,39.5713281 L38.529242,11.5945179 Z" id="路径" fill="url(#linearGradient-15)" fill-rule="nonzero"></path>
                <path d="M40.0696665,11.5945179 C40.7787508,12.9742632 40.7321771,13.930188 40.5645118,14.5437962 C40.3595876,15.2947968 39.9823408,15.5008854 39.9357671,16.2705155 C39.8798787,17.2625349 40.4771862,17.4919102 40.5645118,18.4676289 C40.680946,19.7111461 39.7494724,19.8473742 39.6749545,21.1106853 C39.5736568,22.7722013 41.1292177,23.2728684 40.8753911,24.7841844 C40.7077259,25.7843542 39.9998059,25.715658 39.8274833,26.7763736 C39.608587,28.1456398 40.7426562,28.5694603 40.5621831,30.0074227 C40.4201334,31.1333414 39.6772832,31.2521043 39.8041965,32.1800849 C39.9311098,33.1080655 40.7484779,33.4212735 40.5621831,34.1594663 C40.4399272,34.6438326 39.9078229,35.2364827 39.9078229,35.2364827 L39.9078229,35.2364827 C39.693584,36.1539842 39.5585203,37.2787386 40.1476774,37.6979018 C40.6134142,38.0309036 41.303869,37.7607762 41.4284536,38.0052881 C41.5111219,38.1729533 41.3120194,38.5606792 39.914809,39.5713281 L40.0696665,11.5945179 Z" id="路径" fill="url(#linearGradient-7)" fill-rule="nonzero"></path>
                <path d="M41.6112553,11.5945179 C42.3191753,12.9742632 42.2737659,13.930188 42.1049363,14.5437962 C41.9000121,15.2947968 41.5227653,15.5008854 41.477356,16.2705155 C41.4203032,17.2625349 42.0176107,17.4919102 42.1049363,18.4676289 C42.2213705,19.7111461 41.2898969,19.8473742 41.215379,21.1106853 C41.1152456,22.7722013 42.6696422,23.2728684 42.41698,24.7841844 C42.2493147,25.7843542 41.5413948,25.715658 41.3690722,26.7763736 C41.1490115,28.1456398 42.284245,28.5694603 42.1026076,30.0074227 C41.9617223,31.1333414 41.2177077,31.2521043 41.3457853,32.1800849 C41.4738629,33.1080655 42.2889024,33.4212735 42.1026076,34.1594663 C41.9861734,34.6438326 41.4494118,35.2364827 41.4482474,35.2364827 L41.4482474,35.2364827 C41.2340085,36.1539842 41.0989448,37.2787386 41.6881019,37.6979018 C42.1538387,38.0309036 42.8442935,37.7607762 42.9688781,38.0052881 C43.0515464,38.1729533 42.8524439,38.5606792 41.4552335,39.5713281 L41.6112553,11.5945179 Z" id="路径" fill="url(#linearGradient-2)" fill-rule="nonzero"></path>
                <path d="M43.1516798,11.5945179 C43.8595998,12.9742632 43.8141904,13.930188 43.6465252,14.5437962 C43.4404366,15.2947968 43.0643542,15.5008854 43.0177805,16.2705155 C42.9607277,17.2625349 43.5580352,17.4919102 43.6465252,18.4676289 C43.7629594,19.7111461 42.8314857,19.8473742 42.7569679,21.1106853 C42.6556701,22.7722013 44.211231,23.2728684 43.9574045,24.7841844 C43.7897392,25.7843542 43.0818193,25.715658 42.9094967,26.7763736 C42.6906004,28.1456398 43.8246695,28.5694603 43.6441965,30.0074227 C43.5021468,31.1333414 42.7592965,31.2521043 42.8862098,32.1800849 C43.0131231,33.1080655 43.8304912,33.4212735 43.6441965,34.1594663 C43.5277623,34.6438326 42.9898363,35.2364827 42.9898363,35.2364827 L42.9898363,35.2364827 C42.7755973,36.1539842 42.6405337,37.2787386 43.2227047,37.6979018 C43.6884415,38.0309036 44.3800606,37.7607762 44.5034809,38.0052881 C44.5861492,38.1729533 44.3870467,38.5606792 42.9898363,39.5713281 L43.1516798,11.5945179 Z" id="路径" fill="url(#linearGradient-17)" fill-rule="nonzero"></path>
                <path d="M44.6921043,11.5945179 C45.4011886,12.9742632 45.3546149,13.930188 45.1869497,14.5437962 C44.9820255,15.2947968 44.6047787,15.5008854 44.558205,16.2705155 C44.5023166,17.2625349 45.099624,17.4919102 45.1869497,18.4676289 C45.3033839,19.7111461 44.3719102,19.8473742 44.2973924,21.1106853 C44.1960946,22.7722013 45.7516555,23.2728684 45.497829,24.7841844 C45.3301637,25.7843542 44.6222438,25.715658 44.4499212,26.7763736 C44.2298605,28.1456398 45.365094,28.5694603 45.1834566,30.0074227 C45.0414069,31.1333414 44.2985567,31.2521043 44.42547,32.1800849 C44.5523833,33.1080655 45.3697514,33.4212735 45.1834566,34.1594663 C45.0670224,34.6438326 44.5290964,35.2364827 44.5290964,35.2364827 L44.5290964,35.2364827 C44.3148575,36.1539842 44.1797938,37.2787386 44.7689509,37.6979018 C45.2346877,38.0309036 45.9251425,37.7607762 46.0497271,38.0052881 C46.1323954,38.1729533 45.9332929,38.5606792 44.5360825,39.5713281 L44.6921043,11.5945179 Z" id="路径" fill="url(#linearGradient-12)" fill-rule="nonzero"></path>
                <rect id="矩形" fill="url(#linearGradient-18)" fill-rule="nonzero" opacity="0.63" transform="translate(24.735864, 24.180473) rotate(-90.000000) translate(-24.735864, -24.180473) " x="13.1011765" y="3.10762887" width="23.2693754" height="42.1456883"></rect>
                <ellipse id="椭圆形" fill="url(#linearGradient-19)" fill-rule="nonzero" opacity="0.8" cx="41.8266586" cy="21.3493754" rx="1" ry="1"></ellipse>
                <ellipse id="椭圆形" fill="url(#linearGradient-20)" fill-rule="nonzero" opacity="0.8" cx="39.734336" cy="25.2673863" rx="1" ry="1"></ellipse>
                <ellipse id="椭圆形" fill="url(#linearGradient-21)" fill-rule="nonzero" opacity="0.8" cx="20.1081868" cy="25.9822923" rx="1" ry="1"></ellipse>
                <ellipse id="椭圆形" fill="url(#linearGradient-22)" fill-rule="nonzero" opacity="0.8" cx="19.8543602" cy="18.7342632" rx="1" ry="1"></ellipse>
                <ellipse id="椭圆形" fill="url(#linearGradient-23)" fill-rule="nonzero" opacity="0.8" cx="12.013681" cy="27.0104063" rx="1" ry="1"></ellipse>
                <ellipse id="椭圆形" fill="url(#linearGradient-24)" fill-rule="nonzero" opacity="0.8" cx="7.46576107" cy="19.9510006" rx="1" ry="1"></ellipse>
                <ellipse id="椭圆形" fill="url(#linearGradient-25)" fill-rule="nonzero" opacity="0.8" cx="27.9954397" cy="28.0664645" rx="1" ry="1"></ellipse>
                <ellipse id="椭圆形" fill="url(#linearGradient-22)" fill-rule="nonzero" opacity="0.8" cx="33.4562038" cy="20.980279" rx="1" ry="1"></ellipse>
                <path d="M4.14738629,8.01300182 L45.2055791,8.01300182 C46.1636426,8.01557015 46.9387657,8.79329779 46.9381201,9.75136446 L46.9381205,12.9614554 L2.41135194,12.9614554 L2.41135233,9.75136446 C2.41104343,9.2906308 2.59377296,8.84864488 2.91934251,8.52263862 C3.24491205,8.19663236 3.68665263,8.01331052 4.14738629,8.01300182 Z" id="路径" fill="url(#linearGradient-26)" fill-rule="nonzero"></path>
                <g id="编组" transform="translate(2.357793, 8.004851)" fill-rule="nonzero">
                    <path d="M1.78959369,0.00815039418 L42.8477865,0.00815039418 C43.80585,0.0107187206 44.580973,0.788446365 44.5803275,1.74651304 L44.5803275,3.67349909 C44.5803275,4.38085227 44.0069044,4.95427532 43.2995512,4.95427532 L1.3355003,4.95427532 C0.628147125,4.95427532 0.0547240752,4.38085227 0.0547240752,3.67349909 L0.0547240752,1.74651304 C0.0547240752,0.787084909 0.832494248,0.0093147362 1.79192238,0.0093147362 L1.78959369,0.00815039418 Z" id="路径" fill="url(#linearGradient-27)"></path>
                    <rect id="矩形" fill="url(#linearGradient-28)" x="0.0535597332" y="1.34015767" width="44.5267677" height="3.61411765"></rect>
                </g>
                <path d="M46.9381201,37.0074469 L46.9381201,38.9868284 C46.9380612,39.112264 46.9236064,39.2372785 46.8950394,39.3594178 C46.8257174,39.6578664 46.6754436,39.9314211 46.4607398,40.1500061 C46.1214066,40.4979036 45.6554643,40.6932716 45.1694845,40.6914251 L4.18464524,40.6914251 C3.69855874,40.6938082 3.23241532,40.4983558 2.89338993,40.1500061 C2.67868619,39.9314211 2.52841235,39.6578664 2.45909036,39.3594178 C2.43052338,39.2372785 2.41606858,39.112264 2.4160097,38.9868284 L2.4160097,37.0074469 C2.42182225,36.6673366 2.56269303,36.3435089 2.80755137,36.1073876 C3.05240972,35.8712664 3.38114005,35.7422496 3.72123711,35.7487932 L45.63755,35.7487932 C46.3440423,35.7377694 46.9260015,36.3009726 46.9381201,37.0074469 L46.9381201,37.0074469 Z" id="路径"></path>
                <rect id="矩形" fill="url(#linearGradient-29)" fill-rule="nonzero" x="2.41135233" y="10.4860643" width="44.5267677" height="1.10728927"></rect>
                <path d="M2.41135233,35.993305 L46.9381201,35.993305 L46.9381201,39.203396 C46.937482,40.1605538 46.1627337,40.9368641 45.2055791,40.93943 L4.14738629,40.93943 C3.18795817,40.93943 2.41018799,40.1616598 2.41018799,39.2022317 L2.41018799,35.993305 L2.41135233,35.993305 Z" id="路径" fill="url(#linearGradient-30)" fill-rule="nonzero"></path>
                <g id="编组" transform="translate(2.357793, 35.949060)" fill-rule="nonzero">
                    <path d="M1.3355003,0.044244997 L43.2983869,0.044244997 C44.0057401,0.044244997 44.5791631,0.617668046 44.5791631,1.32502122 L44.5791631,3.25200728 C44.5798103,4.20962083 43.8053949,4.98716098 42.8477865,4.99036992 L1.78959369,4.99036992 C0.830165564,4.99036992 0.0523953911,4.21259975 0.0523953911,3.25317162 L0.0523953911,1.32618557 C0.0520854751,0.985897027 0.187207089,0.659473733 0.427936722,0.418962548 C0.668666355,0.178451363 0.995212185,0.0436261491 1.3355003,0.044244997 L1.3355003,0.044244997 Z" id="路径" fill="url(#linearGradient-31)"></path>
                    <rect id="矩形" fill="url(#linearGradient-32)" x="0.0535597332" y="0.044244997" width="44.5267677" height="3.61411765"></rect>
                </g>
                <rect id="矩形" fill="url(#linearGradient-29)" fill-rule="nonzero" x="2.41135233" y="37.3579139" width="44.5267677" height="1.10728927"></rect>
            </g>
        </g>
    </g>
</svg>